<svg width="76" height="76" viewBox="0 0 76 76" fill="none" xmlns="http://www.w3.org/2000/svg">
<g filter="url(#filter0_d_10_15)">
<circle cx="38" cy="32" r="28" fill="#D7292C"/>
<path d="M43.2363 27.0002V35.3336M32.2293 32.8336L34.9029 27.0002L37.5766 32.8336M32.2293 32.8336L31.0835 35.3336M32.2293 32.8336H37.5766M38.7224 35.3336L37.5766 32.8336M53 47L47.1827 41.183M47.1827 41.183C49.7452 38.6194 51.3301 35.0783 51.3301 31.1669C51.3301 28.6419 50.6696 26.2711 49.5119 24.2181M47.1827 41.183C44.6192 43.7475 41.0773 45.3338 37.165 45.3338C29.3419 45.3338 23 38.9911 23 31.1669C23 23.3427 29.3419 17 37.165 17C39.6891 17 42.059 17.6603 44.1115 18.8176" stroke="white" stroke-width="2.6" stroke-linecap="round" stroke-linejoin="round"/>
</g>
<defs>
<filter id="filter0_d_10_15" x="0" y="0" width="76" height="76" filterUnits="userSpaceOnUse" color-interpolation-filters="sRGB">
<feFlood flood-opacity="0" result="BackgroundImageFix"/>
<feColorMatrix in="SourceAlpha" type="matrix" values="0 0 0 0 0 0 0 0 0 0 0 0 0 0 0 0 0 0 127 0" result="hardAlpha"/>
<feOffset dy="6"/>
<feGaussianBlur stdDeviation="5"/>
<feComposite in2="hardAlpha" operator="out"/>
<feColorMatrix type="matrix" values="0 0 0 0 0.843137 0 0 0 0 0.160784 0 0 0 0 0.172549 0 0 0 0.25 0"/>
<feBlend mode="normal" in2="BackgroundImageFix" result="effect1_dropShadow_10_15"/>
<feBlend mode="normal" in="SourceGraphic" in2="effect1_dropShadow_10_15" result="shape"/>
</filter>
</defs>
</svg>
