<svg width="76" height="76" viewBox="0 0 76 76" fill="none" xmlns="http://www.w3.org/2000/svg">
<g filter="url(#filter0_d_10_13)">
<circle cx="38" cy="32" r="28" fill="#D7292C"/>
<path d="M23 38.5882V38.5882C23 38.7849 23 38.8832 23.0019 38.9663C23.0908 42.8124 26.1876 45.9092 30.0337 45.9981C30.1168 46 30.2151 46 30.4118 46H45.5882C45.7849 46 45.8832 46 45.9663 45.9981C49.8124 45.9092 52.9092 42.8124 52.9981 38.9663C53 38.8832 53 38.7849 53 38.5882V38.5882M23 38.5882V30.96C23 25.5604 23 22.8606 24.3751 20.9679C24.8192 20.3567 25.3567 19.8192 25.9679 19.3751C27.8606 18 30.5604 18 35.96 18H44.7647C45.7262 18 46.207 18 46.6114 18.0459C49.9453 18.424 52.576 21.0547 52.9541 24.3886C53 24.793 53 25.2738 53 26.2353V26.2353V27.0588M23 38.5882L26.8125 33.3135C28.2547 31.3182 28.9758 30.3206 29.8466 29.9257C30.7915 29.4972 31.8752 29.4972 32.8201 29.9257C33.6909 30.3206 34.412 31.3182 35.8542 33.3135L36.694 34.4754C37.1619 35.1228 37.3959 35.4465 37.6294 35.671C38.8591 36.8526 40.7491 37.0093 42.1566 36.0464C42.4239 35.8635 42.708 35.5827 43.2761 35.0212V35.0212C43.7661 34.5371 44.011 34.295 44.2497 34.1256C45.4976 33.2399 47.169 33.2399 48.4169 34.1256C48.6556 34.295 48.9006 34.5371 49.3905 35.0212L53 38.5882M53 38.5882V33.6471M48 25.8235C48 27.4154 46.6942 28.7059 45.0833 28.7059C43.4725 28.7059 42.1667 27.4154 42.1667 25.8235C42.1667 24.2317 43.4725 22.9412 45.0833 22.9412C46.6942 22.9412 48 24.2317 48 25.8235Z" stroke="white" stroke-width="2.6" stroke-linecap="round" stroke-linejoin="round"/>
</g>
<defs>
<filter id="filter0_d_10_13" x="0" y="0" width="76" height="76" filterUnits="userSpaceOnUse" color-interpolation-filters="sRGB">
<feFlood flood-opacity="0" result="BackgroundImageFix"/>
<feColorMatrix in="SourceAlpha" type="matrix" values="0 0 0 0 0 0 0 0 0 0 0 0 0 0 0 0 0 0 127 0" result="hardAlpha"/>
<feOffset dy="6"/>
<feGaussianBlur stdDeviation="5"/>
<feComposite in2="hardAlpha" operator="out"/>
<feColorMatrix type="matrix" values="0 0 0 0 0.843137 0 0 0 0 0.160784 0 0 0 0 0.172549 0 0 0 0.25 0"/>
<feBlend mode="normal" in2="BackgroundImageFix" result="effect1_dropShadow_10_13"/>
<feBlend mode="normal" in="SourceGraphic" in2="effect1_dropShadow_10_13" result="shape"/>
</filter>
</defs>
</svg>
