<svg width="76" height="76" viewBox="0 0 76 76" fill="none" xmlns="http://www.w3.org/2000/svg">
<g filter="url(#filter0_d_10_14)">
<circle cx="38" cy="32" r="28" fill="#D7292C"/>
<path d="M35.7767 25.6574C35.4939 27.1785 35.2257 30.0892 35.2257 31.6362C35.2257 33.1832 35.2966 36.1438 35.7767 37.615M35.7767 25.6574C35.0867 25.6095 31.9729 25.6089 28.9923 25.6205C26.7344 25.6293 25.6054 25.6337 24.7622 26.1343C24.2418 26.4432 23.8042 26.8825 23.4973 27.4041C23 28.2492 23 29.3828 23 31.65V31.65C23 33.9277 23 35.0666 23.5003 35.9137C23.8091 36.4365 24.249 36.876 24.7721 37.1843C25.6197 37.6838 26.7542 37.6827 29.0232 37.6805C31.9944 37.6777 35.089 37.6627 35.7767 37.615M35.7767 25.6574L36.6634 24.8909M35.7767 37.615C35.8662 37.7014 36.9837 38.6539 38.5392 39.9746C42.5862 43.4106 44.6097 45.1287 46.3335 44.7685C46.8697 44.6565 47.3746 44.4228 47.8071 44.0866C49.1973 43.0056 49.1973 40.3488 49.1973 35.0352V23.57C49.1973 22.1615 49.1973 21.4572 49.092 21.0315C48.535 18.7789 46.0237 17.6338 43.9578 18.6906C43.5675 18.8903 43.0358 19.3521 41.9724 20.2758V20.2758L41.9441 20.3003M26.4935 37.6735L26.4556 46.4098C26.4494 47.8383 27.6061 48.9994 29.0346 48.9987V48.9987C30.4577 48.9979 31.6109 47.8441 31.6109 46.421V37.6743M52.6902 24.6778C54.4366 29.8966 54.4366 33.3758 52.6902 38.5946" stroke="white" stroke-width="2.6" stroke-linecap="round" stroke-linejoin="round"/>
</g>
<defs>
<filter id="filter0_d_10_14" x="0" y="0" width="76" height="76" filterUnits="userSpaceOnUse" color-interpolation-filters="sRGB">
<feFlood flood-opacity="0" result="BackgroundImageFix"/>
<feColorMatrix in="SourceAlpha" type="matrix" values="0 0 0 0 0 0 0 0 0 0 0 0 0 0 0 0 0 0 127 0" result="hardAlpha"/>
<feOffset dy="6"/>
<feGaussianBlur stdDeviation="5"/>
<feComposite in2="hardAlpha" operator="out"/>
<feColorMatrix type="matrix" values="0 0 0 0 0.843137 0 0 0 0 0.160784 0 0 0 0 0.172549 0 0 0 0.25 0"/>
<feBlend mode="normal" in2="BackgroundImageFix" result="effect1_dropShadow_10_14"/>
<feBlend mode="normal" in="SourceGraphic" in2="effect1_dropShadow_10_14" result="shape"/>
</filter>
</defs>
</svg>
