<svg width="188" height="56" viewBox="0 0 188 56" fill="none" xmlns="http://www.w3.org/2000/svg">
<g clip-path="url(#clip0_162_17421)">
<path d="M164.308 10.2483C164.308 10.2483 168.321 14.9212 169.039 15.7989C168.172 17.5296 163.057 26.2448 167.157 36.0232C169.572 42.7234 173.919 46.8152 177.894 51.2037C176.148 52.9839 173.436 55.7282 173.151 55.9755C165.77 49.7079 158.425 38.5327 158.673 27.5428C158.871 18.2466 162.872 12.7084 164.321 10.2483M182.353 45.7768C182.353 45.7768 178.34 41.104 177.609 40.2386C178.489 38.5079 183.604 29.7803 179.492 20.002C177.077 13.3141 172.742 9.20991 168.779 4.83376C170.513 3.04126 173.225 0.29689 173.51 0.0620117C180.891 6.32956 188.235 17.5048 188 28.4823C187.79 37.7786 183.814 43.3168 182.353 45.7768Z" fill="#7A809A"/>
<path fill-rule="evenodd" clip-rule="evenodd" d="M94.4583 33.6743H99.9695C101.629 33.6743 102.847 33.9751 103.623 34.5767C104.391 35.1866 104.779 36.0849 104.787 37.2717C104.787 37.4365 104.775 37.6013 104.75 37.7661C104.733 37.931 104.705 38.0958 104.663 38.2606C104.622 38.4255 104.568 38.582 104.502 38.7304C104.444 38.887 104.374 39.0353 104.292 39.1754C104.193 39.3238 104.089 39.4639 103.982 39.5957C103.867 39.7276 103.743 39.8512 103.611 39.9666C103.478 40.082 103.338 40.185 103.189 40.2756C103.033 40.3663 102.876 40.4446 102.719 40.5105C102.901 40.5517 103.078 40.6135 103.251 40.696C103.417 40.7701 103.578 40.8608 103.734 40.9679C103.891 41.0668 104.04 41.1822 104.18 41.3141C104.312 41.4459 104.436 41.586 104.552 41.7344C104.659 41.8827 104.758 42.0434 104.849 42.2165C104.932 42.3813 105.002 42.5544 105.06 42.7357C105.117 42.917 105.159 43.1024 105.183 43.292C105.208 43.4733 105.221 43.6587 105.221 43.8483C105.221 45.2081 104.812 46.2465 103.994 46.9635C103.169 47.6805 101.914 48.0349 100.23 48.0266H94.4583V33.6743ZM100.898 39.4227C100.973 39.3815 101.043 39.3361 101.109 39.2867C101.175 39.229 101.237 39.1713 101.295 39.1136C101.352 39.0559 101.406 38.9941 101.456 38.9282C101.497 38.8622 101.538 38.7922 101.579 38.718C101.621 38.6439 101.654 38.5697 101.679 38.4955C101.712 38.4213 101.736 38.343 101.753 38.2606C101.769 38.1782 101.782 38.0958 101.79 38.0134C101.798 37.9392 101.802 37.8609 101.802 37.7785C101.811 37.6549 101.802 37.5354 101.778 37.42C101.761 37.3046 101.728 37.1934 101.679 37.0862C101.637 36.9709 101.579 36.8678 101.505 36.7772C101.439 36.6783 101.361 36.5918 101.27 36.5176C100.915 36.1879 100.345 36.0231 99.5608 36.0231H97.3315V39.6823H99.7713C99.8704 39.6905 99.9694 39.6905 100.069 39.6823C100.159 39.6658 100.254 39.6493 100.353 39.6328C100.452 39.6081 100.547 39.5792 100.638 39.5463C100.729 39.5133 100.816 39.4721 100.898 39.4227ZM101.79 45.4059C101.889 45.2987 101.976 45.1792 102.05 45.0474C102.124 44.9238 102.182 44.796 102.223 44.6642C102.273 44.5241 102.306 44.3798 102.323 44.2315C102.347 44.0914 102.356 43.9472 102.347 43.7988C102.356 43.667 102.347 43.531 102.323 43.3909C102.306 43.259 102.273 43.1271 102.223 42.9953C102.166 42.8634 102.1 42.7439 102.025 42.6368C101.951 42.5214 101.864 42.4143 101.765 42.3154C101.377 41.9692 100.75 41.7962 99.8828 41.7962H97.3315V45.9745H100.007C100.832 45.9581 101.427 45.7644 101.79 45.3935V45.4059Z" fill="#7A809A"/>
<path d="M127.947 48.0269V41.2896C127.955 41.1577 127.955 41.0258 127.947 40.894C127.93 40.7621 127.909 40.6302 127.885 40.4984C127.86 40.3748 127.823 40.2511 127.773 40.1275C127.724 40.0039 127.67 39.8844 127.612 39.769C127.377 39.4229 126.993 39.2375 126.436 39.2375C126.32 39.2457 126.204 39.2581 126.089 39.2745C125.973 39.291 125.862 39.3116 125.754 39.3364C125.639 39.3611 125.527 39.394 125.42 39.4352C125.313 39.4765 125.205 39.5218 125.098 39.5712C124.982 39.6207 124.867 39.6784 124.751 39.7443C124.636 39.802 124.52 39.8638 124.405 39.9297C124.297 39.9957 124.19 40.0616 124.083 40.1275C123.975 40.2017 123.868 40.2759 123.761 40.35V48.0269H120.875V37.0741H123.761V38.3103C123.909 38.1949 124.062 38.0837 124.219 37.9765C124.384 37.8694 124.549 37.7664 124.714 37.6675C124.879 37.5686 125.044 37.4779 125.21 37.3955C125.383 37.3049 125.56 37.2224 125.742 37.1483C125.825 37.1153 125.911 37.0865 126.002 37.0617C126.093 37.0288 126.188 37.004 126.287 36.9876C126.378 36.9628 126.469 36.9422 126.559 36.9258C126.65 36.9093 126.745 36.8969 126.844 36.8887C128.058 36.7774 129.358 37.0617 130.002 37.754C130.547 38.3474 130.82 39.155 130.82 40.177V48.0269H127.947Z" fill="#7A809A"/>
<path d="M141.26 48.0265L138.114 43.1929L137.371 43.9717V48.0265H134.486V33.4146H137.359V40.634L140.69 37.0737H143.873L139.947 41.2768L144.406 48.0265H141.26Z" fill="#7A809A"/>
<path fill-rule="evenodd" clip-rule="evenodd" d="M114.336 41.1162C114.336 40.016 113.704 39.2866 112.367 39.2866C112.094 39.2866 111.822 39.3155 111.549 39.3732C111.277 39.4308 111.017 39.5133 110.769 39.6204C110.513 39.7275 110.274 39.8635 110.051 40.0283C109.828 40.1849 109.621 40.3621 109.431 40.5599L108.428 38.6562C108.725 38.3842 109.043 38.1411 109.382 37.9268C109.729 37.7125 110.088 37.5312 110.459 37.3829C110.839 37.2345 111.227 37.1233 111.623 37.0491C112.02 36.9832 112.42 36.9502 112.825 36.9502C115.116 36.9502 117.221 37.9392 117.221 41.0544V48.0266H114.336V46.9264C114.162 47.1571 113.968 47.359 113.754 47.5321C113.531 47.7134 113.291 47.8659 113.035 47.9895C112.779 48.1049 112.511 48.1914 112.23 48.2491C111.95 48.3068 111.669 48.3315 111.388 48.3233C110.918 48.3233 110.447 48.2367 110.013 48.0513C109.592 47.8782 109.196 47.6063 108.874 47.2725C108.54 46.9387 108.28 46.5431 108.119 46.1105C107.945 45.6654 107.871 45.208 107.883 44.7383C107.883 42.2041 109.778 41.2398 111.388 41.2398H114.336V41.1162ZM114.336 45.6283V43.3414H112.404C111.326 43.3414 110.447 43.9224 110.447 44.9732C110.447 45.9868 111.326 46.5679 112.404 46.5679C112.585 46.5843 112.771 46.572 112.961 46.5308C113.143 46.4978 113.32 46.4401 113.494 46.3577C113.667 46.2753 113.824 46.1723 113.964 46.0487C114.105 45.925 114.228 45.7849 114.336 45.6283Z" fill="#7A809A"/>
<path fill-rule="evenodd" clip-rule="evenodd" d="M10.2298 48.0266L9.20189 44.899H4.00031L2.99715 48.0266H0.0991211L5.20162 33.6743H8.07488L13.2393 48.0266H10.2298ZM6.56394 36.7154L4.66908 42.5503H8.50834L6.56394 36.7154Z" fill="#7A809A"/>
<path d="M34.4543 40.7947C34.5864 40.8854 34.7102 40.976 34.8258 41.0667C34.9414 41.1656 35.0529 41.2686 35.1602 41.3757C35.2593 41.4911 35.3542 41.6065 35.445 41.7219C35.5359 41.8455 35.6226 41.9732 35.7051 42.1051C35.7794 42.2534 35.8455 42.4018 35.9033 42.5501C35.9611 42.7067 36.0065 42.8633 36.0395 43.0199C36.0725 43.1847 36.0973 43.3495 36.1138 43.5144C36.1303 43.6709 36.1386 43.8316 36.1386 43.9965C36.1468 44.2107 36.1345 44.425 36.1014 44.6393C36.0767 44.8536 36.0354 45.0637 35.9776 45.2698C35.9115 45.4758 35.8331 45.6777 35.7423 45.8755C35.6515 46.0651 35.5441 46.2505 35.4203 46.4318C35.2964 46.5884 35.1643 46.7408 35.024 46.8892C34.8836 47.0293 34.7309 47.1612 34.5657 47.2848C34.4089 47.4084 34.2437 47.5197 34.0703 47.6185C33.8887 47.7174 33.7029 47.804 33.513 47.8781C33.3066 47.9606 33.1002 48.0306 32.8938 48.0883C32.6791 48.146 32.4603 48.1954 32.2374 48.2366C32.0227 48.2779 31.8039 48.3067 31.581 48.3232C31.3663 48.3397 31.1475 48.3479 30.9246 48.3479C30.6852 48.3479 30.4457 48.3397 30.2063 48.3232C29.9751 48.2985 29.7398 48.2655 29.5004 48.2243C29.2692 48.1748 29.0421 48.1172 28.8192 48.0512C28.588 47.9853 28.361 47.9111 28.1381 47.8287C27.9151 47.7463 27.7005 47.6515 27.4941 47.5444C27.2794 47.4372 27.073 47.3177 26.8748 47.1859C26.6767 47.054 26.4826 46.918 26.2927 46.7779C26.1111 46.6296 25.9377 46.4689 25.7726 46.2958L27.234 44.4786C27.3661 44.6022 27.5064 44.7258 27.6551 44.8495C27.7954 44.9648 27.9399 45.0761 28.0885 45.1832C28.2454 45.2904 28.4023 45.3934 28.5591 45.4923C28.716 45.5829 28.8811 45.6695 29.0545 45.7519C29.1949 45.8261 29.3394 45.8879 29.488 45.9373C29.6366 45.995 29.7852 46.0444 29.9338 46.0857C30.0907 46.1186 30.2476 46.1475 30.4045 46.1722C30.5613 46.1887 30.7182 46.201 30.8751 46.2093C31.0154 46.2175 31.1599 46.2134 31.3086 46.1969C31.4489 46.1804 31.5893 46.1557 31.7296 46.1227C31.87 46.0815 32.0104 46.0321 32.1507 45.9744C32.2828 45.9167 32.4108 45.8508 32.5346 45.7766C32.6956 45.653 32.8443 45.4923 32.9557 45.3192C33.0672 45.1338 33.1539 44.936 33.191 44.7258C33.2282 44.528 33.2282 44.3055 33.191 44.1077C33.1539 43.8976 33.0796 43.6998 32.9681 43.5144C32.9186 43.4484 32.869 43.3866 32.8195 43.3289C32.7617 43.263 32.6998 43.2053 32.6337 43.1559C32.5759 43.0982 32.514 43.0446 32.4479 42.9951C32.3819 42.9539 32.3117 42.9127 32.2374 42.8715C32.1383 42.8056 32.0351 42.7438 31.9278 42.6861C31.8287 42.6202 31.7255 42.5625 31.6182 42.513C31.5108 42.4553 31.4035 42.4018 31.2962 42.3523C31.1888 42.2946 31.0815 42.2452 30.9742 42.204L29.5623 41.6353C29.3972 41.5694 29.2362 41.5035 29.0793 41.4375C28.9224 41.3634 28.7656 41.2851 28.6087 41.2027C28.4518 41.1202 28.2991 41.0337 28.1504 40.9431C28.0018 40.8524 27.8532 40.7576 27.7046 40.6587C27.589 40.5846 27.4775 40.498 27.3702 40.3991C27.2629 40.3002 27.1597 40.1972 27.0606 40.0901C26.9698 39.9829 26.8831 39.8717 26.8005 39.7563C26.7179 39.6409 26.6436 39.5173 26.5776 39.3854C26.5033 39.2453 26.4414 39.1052 26.3918 38.9651C26.334 38.8168 26.2886 38.6684 26.2556 38.5201C26.2226 38.3635 26.1978 38.2069 26.1813 38.0503C26.1648 37.902 26.1606 37.7495 26.1689 37.5929C26.1606 37.3951 26.1689 37.1974 26.1937 36.9996C26.2184 36.8018 26.2597 36.6081 26.3175 36.4185C26.367 36.229 26.4372 36.0436 26.528 35.8623C26.6106 35.6809 26.7056 35.5079 26.8129 35.343C26.9202 35.1865 27.04 35.0381 27.1721 34.898C27.3042 34.7579 27.4486 34.6261 27.6055 34.5024C27.7541 34.3871 27.911 34.2799 28.0761 34.181C28.2413 34.0821 28.4147 33.9956 28.5963 33.9214C28.8027 33.8472 29.0091 33.7772 29.2155 33.7113C29.4302 33.6536 29.6449 33.6041 29.8595 33.5629C30.0742 33.5217 30.2889 33.4929 30.5035 33.4764C30.7265 33.4599 30.9453 33.4517 31.1599 33.4517C31.3829 33.4517 31.6058 33.4599 31.8287 33.4764C32.0434 33.5011 32.2622 33.5341 32.4851 33.5753C32.6998 33.6082 32.9144 33.6577 33.1291 33.7236C33.3355 33.7813 33.5419 33.8514 33.7483 33.9338C33.9548 34.0162 34.1529 34.1068 34.3428 34.2057C34.5327 34.3046 34.7185 34.4118 34.9001 34.5272C35.0735 34.6508 35.2469 34.7785 35.4203 34.9104C35.5854 35.0505 35.7423 35.1947 35.8909 35.343L34.4543 37.1726C34.3469 37.0573 34.2313 36.946 34.1075 36.8389C33.9836 36.7317 33.8515 36.6287 33.7112 36.5298C33.5791 36.4392 33.4428 36.3526 33.3025 36.2702C33.1621 36.1795 33.0176 36.1013 32.869 36.0353C32.7369 35.9694 32.6007 35.9076 32.4603 35.8499C32.3282 35.8004 32.1879 35.7592 32.0393 35.7263C31.8989 35.6933 31.7544 35.6645 31.6058 35.6397C31.4572 35.6233 31.3086 35.6109 31.1599 35.6027C31.0361 35.6027 30.9081 35.6068 30.776 35.615C30.6522 35.6315 30.5283 35.6603 30.4045 35.7015C30.2806 35.7345 30.1609 35.7798 30.0453 35.8375C29.9297 35.8952 29.8224 35.9653 29.7233 36.0477C29.6242 36.1219 29.5334 36.2043 29.4508 36.2949C29.3683 36.3938 29.3022 36.4968 29.2527 36.604C29.1949 36.7194 29.1536 36.8389 29.1288 36.9625C29.1123 37.0861 29.1082 37.2097 29.1165 37.3333C29.1082 37.424 29.1165 37.5146 29.1412 37.6053C29.1577 37.696 29.1866 37.7866 29.2279 37.8773C29.2692 37.9597 29.3187 38.038 29.3765 38.1121C29.4426 38.1863 29.5128 38.2522 29.5871 38.3099C29.6862 38.3924 29.7852 38.4706 29.8843 38.5448C29.9916 38.6107 30.099 38.6767 30.2063 38.7426C30.3136 38.8085 30.4251 38.8703 30.5407 38.928C30.6563 38.9857 30.7719 39.0393 30.8875 39.0887L32.2869 39.6698C32.4768 39.7439 32.6667 39.8263 32.8566 39.917C33.0383 39.9994 33.2199 40.0901 33.4016 40.189C33.5832 40.2796 33.7607 40.3785 33.9341 40.4857C34.1158 40.5846 34.2891 40.6876 34.4543 40.7947Z" fill="#7A809A"/>
<path d="M77.7141 48.0269V41.2401C77.7224 41.1165 77.7224 40.9888 77.7141 40.8569C77.7059 40.7251 77.6893 40.5973 77.6646 40.4737C77.6398 40.3418 77.6109 40.2141 77.5779 40.0905C77.5449 39.9669 77.4994 39.8474 77.4416 39.732C77.4086 39.6496 77.3632 39.5754 77.3054 39.5095C77.2476 39.4518 77.1816 39.3982 77.1073 39.3488C77.0329 39.3075 76.9504 39.2787 76.8596 39.2622C76.777 39.2457 76.6903 39.2416 76.5995 39.2499C76.5004 39.2581 76.4013 39.2663 76.3023 39.2746C76.2032 39.2911 76.1041 39.3117 76.005 39.3364C75.9142 39.3694 75.8193 39.4023 75.7202 39.4353C75.6294 39.4765 75.5385 39.5177 75.4477 39.5589C75.3486 39.6166 75.2454 39.6743 75.1381 39.732C75.039 39.7979 74.9441 39.8638 74.8532 39.9298C74.7542 39.9957 74.6592 40.0658 74.5684 40.1399C74.4776 40.2141 74.3909 40.2924 74.3083 40.3748V48.0269H71.4351V37.0741H74.0482V38.3103C74.1721 38.2114 74.3001 38.1125 74.4322 38.0137C74.5643 37.9148 74.6964 37.8241 74.8285 37.7417C74.9688 37.651 75.1092 37.5686 75.2495 37.4944C75.3982 37.412 75.5468 37.3379 75.6954 37.2719C75.8275 37.206 75.9637 37.1483 76.1041 37.0989C76.2445 37.0494 76.3889 37.0082 76.5376 36.9752C76.6862 36.9423 76.8348 36.9134 76.9834 36.8887C77.132 36.8722 77.2806 36.864 77.4293 36.864C77.5779 36.8557 77.7265 36.8599 77.8751 36.8763C78.0155 36.8928 78.1558 36.9176 78.2962 36.9505C78.4448 36.9917 78.5852 37.0371 78.7173 37.0865C78.8494 37.1442 78.9774 37.2101 79.1012 37.2843C79.2168 37.3585 79.3241 37.4409 79.4232 37.5315C79.514 37.6222 79.6048 37.717 79.6957 37.8159C79.7782 37.9148 79.8525 38.0219 79.9186 38.1373C79.9929 38.2444 80.0548 38.3598 80.1044 38.4834C80.2365 38.368 80.3686 38.2568 80.5007 38.1496C80.6328 38.0425 80.769 37.9395 80.9094 37.8406C81.058 37.7499 81.2025 37.6593 81.3428 37.5686C81.4914 37.478 81.6442 37.3955 81.8011 37.3214C81.9414 37.2472 82.0859 37.1813 82.2345 37.1236C82.3831 37.0659 82.5359 37.0164 82.6928 36.9752C82.8496 36.9423 83.0065 36.9134 83.1634 36.8887C83.3285 36.8722 83.4895 36.864 83.6464 36.864C84.6124 36.864 85.5784 37.1607 86.0986 37.754C86.6063 38.3474 86.8664 39.151 86.8664 40.1646V48.0269H83.9932V40.894C83.9932 40.2759 83.89 39.8474 83.6835 39.6084C83.6258 39.5507 83.5638 39.4971 83.4978 39.4476C83.4235 39.3982 83.3492 39.357 83.2749 39.324C83.1923 39.2993 83.1097 39.2787 83.0272 39.2622C82.9446 39.254 82.862 39.2499 82.7795 39.2499C82.6804 39.2581 82.5813 39.2705 82.4822 39.2869C82.3831 39.2952 82.2882 39.3158 82.1974 39.3488C82.0983 39.3817 82.0075 39.4188 81.9249 39.46C81.8341 39.5012 81.7474 39.5507 81.6648 39.6084C81.5658 39.6578 81.4667 39.7114 81.3676 39.7691C81.2768 39.8268 81.186 39.8886 81.0951 39.9545C81.0043 40.0204 80.9176 40.0905 80.8351 40.1646C80.7525 40.2306 80.6699 40.3048 80.5874 40.3872V48.0269H77.7141Z" fill="#7A809A"/>
<path fill-rule="evenodd" clip-rule="evenodd" d="M64.6234 41.1162C64.6234 40.016 63.9918 39.2866 62.6543 39.2866C62.3818 39.2866 62.1093 39.3155 61.8369 39.3732C61.5644 39.4308 61.3043 39.5133 61.0566 39.6204C60.8007 39.7275 60.5613 39.8635 60.3383 40.0283C60.1154 40.1849 59.909 40.3621 59.7191 40.5599L58.7159 38.6562C59.0132 38.3842 59.331 38.1411 59.6695 37.9268C60.0163 37.7125 60.3755 37.5312 60.747 37.3829C61.1268 37.2345 61.5149 37.1233 61.9112 37.0491C62.3075 36.9832 62.7079 36.9502 63.1125 36.9502C65.4037 36.9502 67.5091 37.9392 67.5091 41.0544V48.0266H64.6234V46.9264C64.45 47.1571 64.256 47.359 64.0414 47.5321C63.8184 47.7134 63.579 47.8659 63.323 47.9895C63.0671 48.1049 62.7988 48.1914 62.518 48.2491C62.2373 48.3068 61.9566 48.3315 61.6759 48.3233C61.2053 48.3233 60.7346 48.2367 60.3012 48.0513C59.8801 47.8782 59.4838 47.6063 59.1494 47.2725C58.8274 46.9387 58.5673 46.5431 58.4063 46.1105C58.2329 45.6654 58.1586 45.208 58.171 44.7383C58.171 42.2041 60.0659 41.2398 61.6759 41.2398H64.6234V41.1162ZM64.6234 45.6283V43.3414H62.6914C61.614 43.3414 60.7346 43.9224 60.7346 44.9732C60.7346 45.9868 61.614 46.5679 62.6914 46.5679C62.8731 46.5843 63.0588 46.572 63.2487 46.5308C63.4304 46.4978 63.6079 46.4401 63.7813 46.3577C63.9464 46.2753 64.1033 46.1723 64.2519 46.0487C64.3923 45.925 64.5161 45.7849 64.6234 45.6283Z" fill="#7A809A"/>
<path fill-rule="evenodd" clip-rule="evenodd" d="M45.2661 41.1162C45.2661 40.016 44.6221 39.2866 43.297 39.2866C43.0163 39.2866 42.7438 39.3155 42.4796 39.3732C42.2071 39.4308 41.9429 39.5133 41.687 39.6204C41.4393 39.7275 41.204 39.8635 40.981 40.0283C40.7498 40.1849 40.5393 40.3621 40.3494 40.5599L39.3586 38.6562C39.6476 38.3842 39.9655 38.1411 40.3123 37.9268C40.6508 37.7125 41.0099 37.5312 41.3897 37.3829C41.7613 37.2345 42.1493 37.1233 42.5539 37.0491C42.9502 36.9832 43.3506 36.9502 43.7552 36.9502C46.034 36.9502 48.1394 37.9392 48.1394 41.0544V48.0266H45.2661V46.9264C45.0928 47.1571 44.8946 47.359 44.6717 47.5321C44.4488 47.7134 44.2093 47.8659 43.9534 47.9895C43.6974 48.1049 43.4291 48.1914 43.1484 48.2491C42.8759 48.3068 42.5952 48.3315 42.3062 48.3233C41.848 48.3233 41.3773 48.2367 40.9439 48.0513C40.5104 47.8782 40.1265 47.6063 39.7921 47.2725C39.4701 46.9387 39.21 46.5431 39.0366 46.1105C38.8756 45.6654 38.8013 45.208 38.8137 44.7383C38.8137 42.2041 40.7086 41.2398 42.3062 41.2398H45.2661V41.1162ZM45.2661 45.6283V43.3414H43.3217C42.2567 43.3414 41.3773 43.9224 41.3773 44.9732C41.3773 45.9868 42.2567 46.5679 43.3217 46.5679C43.5116 46.5843 43.6974 46.572 43.8791 46.5308C44.069 46.4978 44.2506 46.4401 44.424 46.3577C44.5891 46.2753 44.7419 46.1723 44.8822 46.0487C45.0308 45.925 45.1588 45.7849 45.2661 45.6283Z" fill="#7A809A"/>
<path d="M52.0654 33.7607L54.9511 33.4146V40.7205V48.0265H52.0654V33.7607Z" fill="#7A809A"/>
<path d="M15.4314 33.7607L18.317 33.4146V48.0265H15.4314V33.7607Z" fill="#7A809A"/>
<path d="M103.351 15.1438H101.357C101.357 15.1438 100.836 15.1067 100.725 14.9337C100.692 14.8842 100.663 14.8348 100.638 14.7853C100.614 14.7276 100.593 14.6741 100.576 14.6246C100.56 14.5669 100.547 14.5092 100.539 14.4515C100.531 14.3939 100.527 14.3362 100.527 14.2785C100.527 14.2208 100.531 14.1631 100.539 14.1054C100.547 14.0477 100.56 13.9942 100.576 13.9447C100.593 13.887 100.614 13.8334 100.638 13.784C100.663 13.7345 100.692 13.6892 100.725 13.648C100.75 13.6151 100.779 13.5821 100.812 13.5491C100.845 13.5244 100.882 13.5038 100.923 13.4873C100.956 13.4626 100.993 13.4461 101.035 13.4379C101.076 13.4296 101.117 13.4255 101.158 13.4255C101.208 13.4255 101.253 13.4255 101.295 13.4255C101.336 13.4337 101.381 13.4461 101.431 13.4626C101.472 13.4791 101.509 13.4956 101.542 13.512C101.584 13.5368 101.621 13.5656 101.654 13.5986C101.687 13.6315 101.716 13.6686 101.741 13.7098C101.765 13.7428 101.786 13.784 101.802 13.8334C101.819 13.8747 101.835 13.9159 101.852 13.9571C101.86 14.0065 101.868 14.0518 101.877 14.093H103.177C103.177 14.0271 103.169 13.9612 103.152 13.8953C103.144 13.8293 103.132 13.7634 103.115 13.6975C103.099 13.6315 103.074 13.5656 103.041 13.4997C103.016 13.4337 102.991 13.3719 102.967 13.3142C102.934 13.2648 102.901 13.2153 102.868 13.1659C102.834 13.1164 102.797 13.0711 102.756 13.0299C102.715 12.9805 102.674 12.9393 102.632 12.9063C102.591 12.8651 102.546 12.828 102.496 12.795C102.446 12.7538 102.397 12.7209 102.347 12.6961C102.29 12.6632 102.236 12.6343 102.186 12.6096C102.129 12.5766 102.071 12.5519 102.013 12.5354C101.955 12.5107 101.897 12.4901 101.84 12.4736C101.782 12.4571 101.72 12.4448 101.654 12.4365C101.596 12.4201 101.538 12.4077 101.48 12.3995C101.414 12.3912 101.352 12.383 101.295 12.3747C101.229 12.3747 101.167 12.3747 101.109 12.3747C100.969 12.3665 100.832 12.3706 100.7 12.3871C100.568 12.4036 100.436 12.4324 100.304 12.4736C100.18 12.5148 100.056 12.5643 99.9324 12.622C99.8168 12.6879 99.7053 12.7621 99.598 12.8445C99.4989 12.9187 99.4122 13.0052 99.3379 13.1041C99.2636 13.203 99.1975 13.3101 99.1397 13.4255C99.0902 13.5409 99.053 13.6563 99.0283 13.7716C99.0117 13.8953 99.0035 14.0189 99.0035 14.1425C99.0035 14.2332 99.0117 14.3238 99.0283 14.4145C99.0448 14.4969 99.0695 14.5793 99.1026 14.6617C99.1439 14.7441 99.1893 14.8224 99.2388 14.8966C99.2883 14.9708 99.3461 15.0367 99.4122 15.0944V15.1685L98.632 15.1933V16.1822H103.338L103.351 15.1438Z" fill="#7A809A"/>
<path fill-rule="evenodd" clip-rule="evenodd" d="M13.0783 16.2316V17.9622C13.0783 19.4292 12.7315 20.5459 12.038 21.3124C11.3362 22.0706 10.2546 22.4497 8.7932 22.4497H4.39663C3.38108 22.4497 2.87331 22.8988 2.87331 23.7971V27.4068H0.260132V23.3644C0.260132 22.1901 0.520211 21.0404 0.99083 20.4594C1.12293 20.2863 1.27155 20.1297 1.43668 19.9896C1.61007 19.8495 1.79171 19.73 1.98161 19.6311C2.17976 19.5322 2.38617 19.458 2.60084 19.4086C2.80726 19.3509 3.02192 19.3221 3.24485 19.3221H3.40585V16.2316C3.39759 14.7646 3.74849 13.652 4.45855 12.8938C5.16861 12.1274 6.26259 11.7441 7.7405 11.7441H8.7932C10.2546 11.7441 11.3362 12.1274 12.038 12.8938C12.7315 13.652 13.0783 14.7646 13.0783 16.2316ZM10.0441 19.2973C10.0688 19.2809 10.0936 19.2603 10.1184 19.2355C10.1431 19.2108 10.1638 19.182 10.1803 19.149C10.1885 19.1243 10.1927 19.0913 10.1927 19.0501V16.2686C10.1927 16.145 10.1844 16.0255 10.1679 15.9101C10.1431 15.7948 10.106 15.6835 10.0564 15.5764C10.0152 15.461 9.96149 15.3539 9.89544 15.255C9.82939 15.1561 9.75508 15.0654 9.67252 14.983L9.64775 14.9583C9.56518 14.8759 9.47849 14.8017 9.38767 14.7358C9.28859 14.6698 9.18951 14.6163 9.09044 14.575C8.9831 14.5256 8.87164 14.4885 8.75605 14.4638C8.64046 14.4473 8.52487 14.4391 8.40928 14.4391C8.35148 14.4391 8.29369 14.4391 8.23589 14.4391C7.56712 14.4514 7.0965 14.6245 6.77449 14.9335C6.44423 15.2714 6.2791 15.8071 6.2791 16.5406V19.0501C6.2791 19.0913 6.28736 19.1284 6.30387 19.1614C6.31213 19.1861 6.32864 19.2108 6.35341 19.2355C6.37818 19.2603 6.40708 19.2809 6.44011 19.2973C6.47313 19.3138 6.50616 19.3221 6.53918 19.3221H9.94498C9.97801 19.3138 10.011 19.3056 10.0441 19.2973Z" fill="#7A809A"/>
<path d="M84.2533 8.15913L87.1266 7.81299V22.4496H84.2533V8.15913Z" fill="#7A809A"/>
<path d="M128.467 8.09717H131.352V10.446H128.467V8.09717Z" fill="#7A809A"/>
<path d="M141.025 25.0581H143.91V27.4069H141.025V25.0581Z" fill="#7A809A"/>
<path d="M141.025 13.3141V19.5817H137.483L133.086 19.5569C133.037 19.5569 132.987 19.5528 132.938 19.5446C132.88 19.5446 132.826 19.5363 132.777 19.5198C132.727 19.5116 132.677 19.4992 132.628 19.4828C132.57 19.4745 132.521 19.458 132.479 19.4333C132.422 19.4168 132.368 19.3921 132.318 19.3591C132.269 19.3344 132.223 19.3056 132.182 19.2726C132.133 19.2396 132.087 19.2067 132.046 19.1737C132.005 19.1325 131.963 19.0913 131.922 19.0501C131.881 19.0089 131.839 18.9636 131.798 18.9141C131.757 18.8729 131.72 18.8235 131.687 18.7658C131.654 18.7163 131.621 18.6627 131.588 18.6051C131.563 18.5556 131.538 18.502 131.513 18.4444C131.48 18.3702 131.456 18.296 131.439 18.2218C131.414 18.1477 131.398 18.0735 131.389 17.9993C131.373 17.9251 131.361 17.8469 131.352 17.7644C131.344 17.6903 131.344 17.6161 131.352 17.5419V13.3141H128.467V17.987C128.475 18.0529 128.475 18.1188 128.467 18.1847C128.467 18.2507 128.458 18.3166 128.442 18.3825C128.434 18.4485 128.417 18.5144 128.392 18.5803C128.376 18.6463 128.355 18.7081 128.33 18.7658C128.306 18.8152 128.281 18.8605 128.256 18.9017C128.231 18.9512 128.202 18.9965 128.169 19.0377C128.136 19.0789 128.103 19.116 128.07 19.149C128.037 19.1902 128 19.2273 127.959 19.2602C127.926 19.285 127.893 19.3138 127.86 19.3468C127.819 19.3715 127.781 19.3921 127.748 19.4086C127.707 19.4333 127.666 19.4498 127.625 19.458C127.583 19.4745 127.542 19.491 127.501 19.5075C127.451 19.5157 127.402 19.524 127.352 19.5322C127.303 19.5405 127.253 19.5487 127.203 19.5569C127.154 19.5652 127.104 19.5693 127.055 19.5693C126.997 19.5775 126.943 19.5817 126.894 19.5817H111.884H110.484C110.385 19.5817 110.282 19.5817 110.174 19.5817C110.075 19.5734 109.972 19.5652 109.865 19.5569C109.758 19.5487 109.654 19.5363 109.555 19.5198C109.456 19.5034 109.353 19.4869 109.246 19.4704C109.147 19.4374 109.047 19.3921 108.948 19.3344C108.858 19.285 108.771 19.2273 108.688 19.1613C108.606 19.0954 108.527 19.0212 108.453 18.9388C108.379 18.8564 108.317 18.7699 108.267 18.6792C108.226 18.6215 108.193 18.5597 108.168 18.4938C108.143 18.4279 108.123 18.3619 108.106 18.296C108.09 18.2218 108.077 18.1518 108.069 18.0859C108.061 18.0117 108.057 17.9416 108.057 17.8757V8.35693H105.183V19.5817H99.1644C99.0819 19.5817 98.9952 19.5817 98.9044 19.5817C98.8218 19.5817 98.7392 19.5734 98.6567 19.5569C98.5741 19.5487 98.4915 19.5322 98.409 19.5075C98.3264 19.4828 98.2438 19.458 98.1613 19.4333C98.0952 19.4003 98.0333 19.3674 97.9755 19.3344C97.9095 19.3015 97.8517 19.2602 97.8021 19.2108C97.7443 19.1696 97.6907 19.1243 97.6411 19.0748C97.5916 19.0254 97.5462 18.9718 97.5049 18.9141C97.4636 18.8482 97.4265 18.7822 97.3934 18.7163C97.3604 18.6504 97.3274 18.5845 97.2943 18.5185C97.2696 18.4526 97.2448 18.3825 97.22 18.3084C97.2035 18.2342 97.187 18.16 97.1705 18.0859C97.154 17.9952 97.1416 17.9045 97.1333 17.8139C97.1168 17.7232 97.1045 17.6326 97.0962 17.5419C97.0879 17.4513 97.0797 17.3565 97.0714 17.2576C97.0714 17.1669 97.0714 17.0763 97.0714 16.9856V15.9225H94.4583V17.1093C94.4583 17.9251 94.5573 19.1613 94.7679 19.7795C94.8174 19.9196 94.8711 20.0555 94.9289 20.1874C94.9867 20.3193 95.0486 20.447 95.1146 20.5706C95.1889 20.7025 95.2674 20.8261 95.35 20.9415C95.4325 21.0651 95.5192 21.1805 95.61 21.2876C95.7009 21.3865 95.7958 21.4813 95.8949 21.5719C96.0022 21.6626 96.1095 21.745 96.2169 21.8192C96.3242 21.8934 96.4398 21.9593 96.5637 22.017C96.6792 22.0747 96.799 22.1282 96.9228 22.1777C97.0549 22.2271 97.1911 22.2683 97.3315 22.3013C97.4636 22.3343 97.5998 22.3631 97.7402 22.3878C97.8806 22.4043 98.0209 22.4167 98.1613 22.4249C98.3016 22.4332 98.442 22.4373 98.5824 22.4373H107.995C108.036 22.3878 108.073 22.3343 108.106 22.2766C108.147 22.2271 108.181 22.1736 108.205 22.1159C108.238 22.0582 108.263 22.0005 108.28 21.9428C108.304 21.8851 108.329 21.8233 108.354 21.7574C108.37 21.7079 108.387 21.6585 108.403 21.609C108.42 21.5596 108.432 21.506 108.441 21.4483C108.457 21.3989 108.469 21.3453 108.478 21.2876C108.494 21.2382 108.507 21.1846 108.515 21.1269H108.602C108.626 21.1846 108.651 21.2382 108.676 21.2876C108.701 21.3371 108.73 21.3865 108.763 21.436C108.796 21.4854 108.829 21.5307 108.862 21.5719C108.903 21.6132 108.944 21.6544 108.986 21.6956C109.027 21.745 109.068 21.7862 109.109 21.8192C109.159 21.8604 109.204 21.8975 109.246 21.9304C109.295 21.9634 109.345 21.9964 109.394 22.0293C109.444 22.0623 109.497 22.0911 109.555 22.1159C109.596 22.1406 109.634 22.1612 109.667 22.1777C109.708 22.2024 109.749 22.223 109.791 22.2395C109.832 22.256 109.877 22.2725 109.927 22.2889C109.968 22.3054 110.009 22.3178 110.051 22.326C110.092 22.3425 110.137 22.3549 110.187 22.3631C110.228 22.3796 110.269 22.392 110.311 22.4002C110.36 22.4084 110.406 22.4167 110.447 22.4249C110.496 22.4332 110.542 22.4373 110.583 22.4373H127.018C127.075 22.4455 127.137 22.4496 127.203 22.4496C127.269 22.4496 127.331 22.4455 127.389 22.4373C127.455 22.4373 127.521 22.4332 127.587 22.4249C127.645 22.4167 127.707 22.4084 127.773 22.4002C127.847 22.392 127.922 22.3796 127.996 22.3631C128.07 22.3466 128.145 22.3301 128.219 22.3137C128.293 22.2889 128.368 22.2683 128.442 22.2519C128.508 22.2271 128.578 22.2024 128.652 22.1777C128.735 22.153 128.813 22.1241 128.888 22.0911C128.97 22.0582 129.049 22.0252 129.123 21.9923C129.206 21.951 129.284 21.9098 129.358 21.8686C129.433 21.8274 129.507 21.7862 129.581 21.745C129.656 21.6956 129.73 21.6461 129.804 21.5967C129.879 21.5472 129.949 21.4937 130.015 21.436C130.089 21.3783 130.155 21.3165 130.213 21.2505C130.279 21.1846 130.341 21.1187 130.399 21.0527C130.44 21.1022 130.481 21.1475 130.523 21.1887C130.564 21.2382 130.605 21.2835 130.646 21.3247C130.688 21.3659 130.733 21.4071 130.783 21.4483C130.824 21.4895 130.869 21.5307 130.919 21.5719C130.968 21.6132 131.022 21.6544 131.08 21.6956C131.129 21.7285 131.179 21.7615 131.228 21.7945C131.286 21.8357 131.34 21.8728 131.389 21.9057C131.447 21.9387 131.505 21.9717 131.563 22.0046C131.621 22.0376 131.678 22.0664 131.736 22.0911C131.794 22.1241 131.856 22.153 131.922 22.1777C131.98 22.2024 132.042 22.2271 132.108 22.2519C132.174 22.2683 132.236 22.2889 132.294 22.3137C132.376 22.3219 132.45 22.3384 132.516 22.3631C132.591 22.3878 132.665 22.4167 132.739 22.4496C132.805 22.4826 132.872 22.5197 132.938 22.5609C133.004 22.6021 133.07 22.6433 133.136 22.6845H133.458C133.582 22.462 134.015 22.4249 134.015 22.4249H143.91V13.3141H141.025Z" fill="#7A809A"/>
<path d="M77.4417 8.09717L77.4293 19.5815H62.642C62.5594 19.5815 62.481 19.5774 62.4066 19.5691C62.3323 19.5609 62.258 19.5444 62.1837 19.5197C62.1094 19.4867 62.0392 19.4496 61.9732 19.4084C61.9071 19.3672 61.8493 19.3219 61.7998 19.2724C61.742 19.19 61.6883 19.1035 61.6388 19.0128C61.5975 18.9304 61.5645 18.8398 61.5397 18.7409C61.5149 18.6502 61.4984 18.5554 61.4902 18.4566C61.4819 18.3577 61.4819 18.2588 61.4902 18.1599V13.3139H58.6045V18.2835C58.6128 18.3824 58.6128 18.4854 58.6045 18.5925C58.5963 18.6914 58.5756 18.7862 58.5426 18.8769C58.5096 18.9758 58.4683 19.0664 58.4188 19.1488C58.3692 19.2395 58.3114 19.3219 58.2454 19.3961C58.1711 19.4538 58.0885 19.5073 57.9977 19.5568C57.9069 19.598 57.816 19.6351 57.7252 19.668C57.6261 19.6928 57.5271 19.7092 57.428 19.7175C57.3372 19.7257 57.2422 19.7257 57.1431 19.7175C57.0358 19.7257 56.9285 19.7257 56.8211 19.7175C56.7138 19.701 56.6106 19.6804 56.5115 19.6557C56.4042 19.6309 56.3051 19.5939 56.2143 19.5444C56.1152 19.5032 56.0203 19.4538 55.9294 19.3961C55.8551 19.3301 55.7849 19.256 55.7189 19.1735C55.6611 19.0829 55.6116 18.9922 55.5703 18.9016C55.529 18.8027 55.5001 18.7038 55.4836 18.6049C55.4671 18.4978 55.4629 18.3906 55.4712 18.2835V13.3139H52.5856V18.2835C52.6021 18.3824 52.6021 18.4854 52.5856 18.5925C52.5773 18.6914 52.5567 18.7862 52.5236 18.8769C52.4906 18.9758 52.4493 19.0664 52.3998 19.1488C52.3503 19.2395 52.2925 19.3219 52.2264 19.3961C52.1521 19.4538 52.0695 19.5073 51.9787 19.5568C51.8962 19.598 51.8053 19.6351 51.7063 19.668C51.6154 19.6928 51.5205 19.7092 51.4214 19.7175C51.3223 19.7257 51.2232 19.7257 51.1242 19.7175C51.0168 19.7257 50.9095 19.7257 50.8022 19.7175C50.6948 19.701 50.5916 19.6804 50.4925 19.6557C50.3852 19.6309 50.2861 19.5939 50.1953 19.5444C50.0962 19.5032 50.0013 19.4538 49.9105 19.3961C49.8362 19.3301 49.766 19.256 49.6999 19.1735C49.6421 19.0829 49.5926 18.9922 49.5513 18.9016C49.51 18.8027 49.4811 18.7038 49.4646 18.6049C49.4481 18.4978 49.444 18.3906 49.4522 18.2835V13.3139H46.579V18.1599C46.5872 18.2588 46.5872 18.3577 46.579 18.4566C46.5625 18.5554 46.5418 18.6502 46.5171 18.7409C46.4923 18.8398 46.4593 18.9304 46.418 19.0128C46.3767 19.1035 46.3272 19.19 46.2694 19.2724C46.2116 19.3219 46.1538 19.3672 46.096 19.4084C46.0299 19.4496 45.9597 19.4867 45.8854 19.5197C45.8111 19.5444 45.7368 19.5609 45.6625 19.5691C45.5882 19.5774 45.5139 19.5815 45.4396 19.5815H31.1105L29.9835 19.5568C29.9257 19.5568 29.872 19.5527 29.8225 19.5444C29.7729 19.5362 29.7234 19.5279 29.6738 19.5197C29.6243 19.5114 29.5748 19.4991 29.5252 19.4826C29.4757 19.4661 29.4261 19.4496 29.3766 19.4331C29.3188 19.4084 29.2693 19.3837 29.228 19.359C29.1784 19.3343 29.1289 19.3054 29.0794 19.2724C29.0381 19.2477 28.9927 19.2189 28.9431 19.1859C28.9019 19.1447 28.8647 19.1076 28.8317 19.0747C28.7821 19.0252 28.7409 18.9758 28.7078 18.9263C28.6665 18.8851 28.6294 18.8398 28.5964 18.7903C28.5633 18.7326 28.5303 18.6791 28.4973 18.6296C28.4725 18.5719 28.4478 18.5142 28.423 18.4566C28.39 18.3906 28.3652 18.3206 28.3487 18.2464C28.3239 18.1722 28.3074 18.0981 28.2991 18.0239C28.2826 17.9497 28.2702 17.8755 28.262 17.8014C28.262 17.7272 28.262 17.6489 28.262 17.5665V8.35677H25.3763V18.0115C25.3846 18.0774 25.3846 18.1434 25.3763 18.2093C25.3763 18.2752 25.3681 18.3412 25.3516 18.4071C25.3433 18.473 25.3268 18.539 25.302 18.6049C25.2855 18.6708 25.2607 18.7326 25.2277 18.7903C25.2112 18.8398 25.1864 18.8851 25.1534 18.9263C25.1286 18.9758 25.0997 19.017 25.0667 19.0499C25.042 19.0911 25.0089 19.1323 24.9676 19.1735C24.9346 19.2148 24.8975 19.2518 24.8562 19.2848C24.8232 19.3095 24.7901 19.3343 24.7571 19.359C24.7158 19.3837 24.6745 19.4084 24.6333 19.4331C24.592 19.4496 24.5507 19.4661 24.5094 19.4826C24.4681 19.4991 24.4268 19.5114 24.3856 19.5197C24.3443 19.5279 24.3071 19.5362 24.2741 19.5444C24.2328 19.5527 24.1915 19.5609 24.1503 19.5691C24.1172 19.5691 24.0801 19.5733 24.0388 19.5815C23.9975 19.5815 23.9604 19.5815 23.9273 19.5815H21.4504V11.2248H18.5771V19.5815H14.9113V22.4495H23.9397C24.0058 22.4495 24.0677 22.4454 24.1255 22.4371C24.1915 22.4289 24.2576 22.4248 24.3236 22.4248C24.3814 22.4165 24.4434 22.4083 24.5094 22.4C24.5755 22.3918 24.6374 22.3794 24.6952 22.363C24.7695 22.3547 24.8438 22.3423 24.9181 22.3259C24.9924 22.3094 25.0667 22.2888 25.141 22.2641C25.2153 22.2476 25.2896 22.227 25.364 22.2022C25.4383 22.1858 25.5126 22.161 25.5869 22.1281C25.6612 22.1033 25.7396 22.0745 25.8222 22.0415C25.8965 22.0086 25.9749 21.9756 26.0575 21.9426C26.1318 21.9014 26.2061 21.8602 26.2804 21.819C26.3547 21.7778 26.429 21.7366 26.5033 21.6954C26.5859 21.646 26.6602 21.5924 26.7263 21.5347C26.8006 21.4852 26.8749 21.4276 26.9492 21.3616C27.0153 21.3039 27.0813 21.2421 27.1474 21.1762C27.2052 21.1103 27.2629 21.0443 27.3207 20.9784C27.362 21.0279 27.4033 21.0773 27.4446 21.1267C27.4859 21.1762 27.5272 21.2215 27.5684 21.2627C27.6097 21.3122 27.6551 21.3575 27.7047 21.3987C27.7542 21.4399 27.8037 21.4811 27.8533 21.5223C27.9028 21.5635 27.9524 21.6047 28.0019 21.646C28.0514 21.6872 28.1051 21.7242 28.1629 21.7572C28.2124 21.7984 28.2661 21.8355 28.3239 21.8685C28.3734 21.9014 28.4271 21.9344 28.4849 21.9674C28.5427 22.0003 28.6005 22.0292 28.6583 22.0539C28.7243 22.0869 28.7863 22.1157 28.8441 22.1404C28.9101 22.1652 28.972 22.1899 29.0298 22.2146C29.0959 22.2393 29.1619 22.2599 29.228 22.2764C29.294 22.3011 29.3601 22.3217 29.4261 22.3382C29.4922 22.3465 29.5582 22.3588 29.6243 22.3753C29.6904 22.3836 29.7564 22.3918 29.8225 22.4C29.8885 22.4 29.9546 22.4042 30.0206 22.4124L30.8999 22.4495H46.8638C46.9381 22.4495 47.0083 22.4454 47.0744 22.4371C47.1487 22.4289 47.2189 22.4206 47.2849 22.4124C47.351 22.3959 47.4211 22.3753 47.4954 22.3506C47.5615 22.3341 47.6276 22.3094 47.6936 22.2764C47.7431 22.2517 47.7927 22.227 47.8422 22.2022C47.8918 22.1775 47.9413 22.1487 47.9908 22.1157C48.0404 22.091 48.0899 22.0621 48.1395 22.0292C48.1807 21.9962 48.2261 21.9591 48.2757 21.9179C48.317 21.885 48.3541 21.852 48.3871 21.819C48.4284 21.7861 48.4697 21.749 48.511 21.7078C48.544 21.6748 48.5812 21.6377 48.6225 21.5965C48.6555 21.5635 48.6885 21.5265 48.7215 21.4852C48.7463 21.4605 48.7669 21.4358 48.7835 21.4111C48.8082 21.3781 48.8289 21.3493 48.8454 21.3245C48.8619 21.2916 48.8784 21.2627 48.8949 21.238C48.9032 21.205 48.9156 21.1721 48.9321 21.1391H49.0064C49.0064 21.1391 49.477 21.9303 49.9848 22.1652C50.1334 22.2311 50.282 22.2888 50.4306 22.3382C50.5875 22.3877 50.7444 22.4289 50.9012 22.4618C51.0581 22.4866 51.215 22.5072 51.3719 22.5237C51.5287 22.5401 51.6897 22.5443 51.8549 22.536C52.02 22.5443 52.181 22.5401 52.3379 22.5237C52.503 22.5154 52.664 22.4989 52.8209 22.4742C52.986 22.4412 53.147 22.4042 53.3039 22.363C53.4608 22.3217 53.6135 22.2723 53.7621 22.2146C53.8694 22.1569 53.9768 22.0951 54.0841 22.0292C54.1915 21.9715 54.2988 21.9097 54.4061 21.8437C54.5052 21.7696 54.6043 21.6995 54.7034 21.6336C54.8024 21.5594 54.9015 21.4852 55.0006 21.4111H55.0749C55.0749 21.4111 55.112 21.2627 55.1368 21.3122C55.1946 21.4111 55.2565 21.5017 55.3226 21.5841C55.3886 21.6666 55.4588 21.7449 55.5331 21.819C55.6157 21.8932 55.7024 21.9591 55.7932 22.0168C55.884 22.0745 55.979 22.124 56.0781 22.1652C56.1936 22.2146 56.3092 22.2599 56.4248 22.3011C56.5404 22.3423 56.6601 22.3794 56.784 22.4124C56.9078 22.4371 57.0317 22.4618 57.1555 22.4866C57.2794 22.5031 57.4032 22.5113 57.5271 22.5113C57.5436 22.5195 57.5601 22.5237 57.5766 22.5237C57.5931 22.5237 57.6096 22.5195 57.6261 22.5113C57.6427 22.5031 57.6592 22.4948 57.6757 22.4866C57.6922 22.4783 57.7046 22.466 57.7128 22.4495H57.9234C57.9234 22.536 57.9234 22.536 57.9234 22.536C58.0885 22.5443 58.2536 22.5401 58.4188 22.5237C58.5756 22.5154 58.7366 22.4989 58.9018 22.4742C59.0586 22.4412 59.2155 22.4042 59.3724 22.363C59.5293 22.3217 59.6861 22.2723 59.843 22.2146C59.9503 22.1569 60.0577 22.0951 60.165 22.0292C60.2641 21.9715 60.3673 21.9097 60.4746 21.8437C60.5737 21.7696 60.6728 21.6995 60.7719 21.6336C60.8709 21.5594 60.97 21.4852 61.0691 21.4111H61.131C61.164 21.4276 61.1971 21.4482 61.2301 21.4729C61.2631 21.5059 61.2962 21.5347 61.3292 21.5594C61.3539 21.5841 61.3828 21.6089 61.4159 21.6336C61.4489 21.6583 61.4778 21.6872 61.5026 21.7201C61.5438 21.7613 61.5851 21.7984 61.6264 21.8314C61.6759 21.8726 61.7214 21.9097 61.7626 21.9426C61.8122 21.9756 61.8617 22.0086 61.9113 22.0415C61.9608 22.0745 62.0103 22.1033 62.0599 22.1281C62.1094 22.1528 62.159 22.1775 62.2085 22.2022C62.258 22.2187 62.3076 22.2393 62.3571 22.2641C62.4066 22.2805 62.4603 22.3011 62.5181 22.3259C62.5676 22.3423 62.6172 22.3588 62.6667 22.3753C62.7163 22.3836 62.7658 22.3918 62.8153 22.4C62.8649 22.4083 62.9144 22.4165 62.964 22.4248C63.0135 22.433 63.063 22.4371 63.1126 22.4371C63.1704 22.4454 63.224 22.4495 63.2736 22.4495H80.3273V8.09717H77.4417Z" fill="#7A809A"/>
</g>
<defs>
<clipPath id="clip0_162_17421">
<rect width="188" height="56" fill="white"/>
</clipPath>
</defs>
</svg>
