<svg width="267" height="56" viewBox="0 0 267 56" fill="none" xmlns="http://www.w3.org/2000/svg">
<path fill-rule="evenodd" clip-rule="evenodd" d="M66.673 11.3322V35.0831C66.673 37.2755 65.7264 40.5475 56.9911 40.5475C48.2558 40.5475 47.3092 37.2755 47.3092 35.0831V11.3322H42.3271V35.3655C42.3271 41.2451 47.1597 43.8028 56.1275 43.8028C60.7111 43.8028 64.0823 43.0222 66.6232 42.308V53.0541H71.5057L71.4891 11.3322H66.673ZM21.6347 0.00488281C16.4035 0.00488281 8.63139 1.10108 8.63139 6.49901V11.3488H2.96838V14.1225H8.63139V43.0554H13.381V14.1225H20.8542V11.3488H13.3976V7.08032C13.3976 2.94468 18.1804 2.28032 21.6347 2.28032C27.3475 2.28032 30.2039 2.71215 30.2039 9.04018V43.0388H34.9536V0.768897H30.2039C27.5634 0.768897 26.2847 0.00488281 21.6347 0.00488281ZM258.219 14.3717C255.346 14.3717 253.021 16.7302 253.021 19.6367C253.021 22.5433 255.346 24.9184 258.219 24.9184C261.125 24.9184 263.433 22.5599 263.433 19.6367C263.433 16.7302 261.108 14.3717 258.219 14.3717Z" fill="#7A809A"/>
<path fill-rule="evenodd" clip-rule="evenodd" d="M220.288 18.5241C223.975 18.0922 227.296 17.8929 229.372 17.8929C228.226 13.4251 222.979 11.6812 214.326 11.6812C206.853 11.6812 200.194 14.2888 200.194 14.2888V20.4839C200.194 20.4839 204.81 16.7303 214.459 16.7303C217.631 16.7137 219.375 17.295 220.288 18.5241ZM105.019 34.1033C104.753 37.5414 101.083 39.4016 97.5289 39.4016C89.8066 39.4016 88.7272 36.0134 88.7272 28.2736C88.7272 20.5504 90.2384 17.1621 97.1469 17.1621C101.631 17.1621 104.753 19.0057 105.019 22.4438C105.235 25.2175 105.351 26.6459 105.351 28.2736C105.351 29.9013 105.235 31.4957 105.019 34.1033ZM105.351 13.558C102.162 12.3123 99.7376 11.6479 95.8018 11.6479C83.7616 11.6479 80.0915 16.232 80.0915 28.257C80.0915 40.2487 85.4888 44.8826 97.5289 44.8826C104.869 44.8826 110.2 42.1089 113.986 42.1089V1.84863H105.351V13.558ZM245.481 12.3954H236.845V17.6272H245.481V12.3954ZM221.301 34.0203C221.301 38.5545 217.1 39.7006 214.227 39.7006C209.328 39.7006 206.803 38.2058 206.803 35.0002C206.803 29.5857 213.679 26.7954 221.285 26.3303V34.0203H221.301ZM247.308 20.7165H244.8C209.793 20.7165 198.45 27.277 198.45 34.7843C198.45 41.7601 204.379 44.8161 213.994 44.8161C220.189 44.8161 226.466 42.1089 229.754 42.1089V25.2175C233.856 24.7026 236.912 24.603 236.912 24.603V44.1352H245.548V29.4362C245.531 24.1878 247.308 20.7165 247.308 20.7165ZM176.479 39.4016C172.908 39.4016 169.238 37.5414 168.972 34.1033C168.757 31.4957 168.657 29.9179 168.657 28.2736C168.657 26.6459 168.773 25.2175 168.972 22.4438C169.238 19.0057 172.377 17.1621 176.861 17.1621C183.769 17.1621 185.281 20.5338 185.281 28.2736C185.281 36.0134 184.201 39.4016 176.479 39.4016ZM178.206 11.6646C174.27 11.6646 171.845 12.3123 168.657 13.5746V1.84863H160.021V42.1255C163.808 42.1255 169.138 44.8992 176.479 44.8992C188.519 44.8992 193.916 40.2653 193.916 28.2736C193.916 16.232 190.246 11.6646 178.206 11.6646ZM144.261 34.3193C144.261 36.5116 143.547 39.767 137.087 39.767C130.61 39.767 129.913 36.5116 129.913 34.3193V12.4286H121.277V36.4618C121.277 42.3414 127.272 44.9158 136.24 44.9158C144.178 44.9158 149.293 42.4577 151.834 42.1919L152.913 42.0757V12.4286H144.278V34.3193H144.261Z" fill="#7A809A"/>
</svg>
