<svg width="145" height="56" viewBox="0 0 145 56" fill="none" xmlns="http://www.w3.org/2000/svg">
<g clip-path="url(#clip0_171_17482)">
<path fill-rule="evenodd" clip-rule="evenodd" d="M78.8559 -0.121094H66.1442L65.1776 0.291027L59.7401 5.72133L59.3292 6.69103V33.4547L59.7401 34.4244L65.1776 39.8547L66.1442 40.2668H78.9042L79.8709 39.8547L85.3084 34.4244L85.7192 33.4547V6.69103L85.3084 5.72133L79.8709 0.291027L78.9042 -0.121094H78.8559ZM78.8076 0.387997L79.6051 0.703149L84.8976 5.988L85.2117 6.788V33.3335L84.8976 34.1335L79.6051 39.4183L78.8076 39.7334H66.2409L65.4434 39.4183L60.1751 34.1335L59.8367 33.3335V6.788L60.1751 5.988L65.4676 0.703149L66.2651 0.387997H78.8076ZM76.6326 9.28497C76.7051 9.28497 76.7292 9.23648 76.7292 9.188V9.09103C76.7292 9.04254 76.6809 8.99406 76.6326 8.99406H76.2217H75.0134H74.6026C74.5542 8.99406 74.5059 9.04254 74.5059 9.09103V9.188C74.5059 9.23648 74.5542 9.28497 74.6026 9.28497H74.6267C74.8442 9.28497 75.0134 9.45466 75.0134 9.67284V9.6486V13.3577C75.0134 13.6001 74.8442 13.7941 74.6509 13.8183H70.3976C70.2042 13.7941 70.0351 13.6244 70.0351 13.3819V9.6486C70.0592 9.43042 70.2284 9.28497 70.4217 9.28497H70.4459C70.4942 9.28497 70.5426 9.23648 70.5426 9.188V9.09103C70.5426 9.04254 70.4942 8.99406 70.4459 8.99406H70.0351H68.8267H68.4159C68.3676 8.99406 68.3192 9.04254 68.3192 9.09103V9.188C68.3192 9.23648 68.3676 9.28497 68.4159 9.28497H68.4401C68.6576 9.28497 68.8267 9.45466 68.8267 9.67284V9.6486V18.8365C68.8267 19.0547 68.6576 19.2244 68.4401 19.2244L68.4159 19.2486C68.3676 19.2486 68.3192 19.2971 68.3192 19.3456V19.4425C68.3192 19.491 68.3676 19.5395 68.4159 19.5395H68.8267H70.4459C70.4942 19.5395 70.5426 19.491 70.5426 19.4425V19.3456C70.5426 19.2971 70.4942 19.2486 70.4459 19.2486H70.4217C70.2042 19.2486 70.0351 19.0789 70.0351 18.885V14.8607C70.0592 14.6425 70.1801 14.4728 70.3492 14.4486H74.7234C74.9167 14.4971 75.0376 14.6668 75.0376 14.9092V18.885V18.8607C75.0376 19.0789 74.8684 19.2486 74.6509 19.2486H74.6267C74.5784 19.2486 74.5301 19.2971 74.5301 19.3456V19.4425C74.5301 19.491 74.5784 19.5395 74.6267 19.5395H75.0376H76.6567C76.7051 19.5395 76.7534 19.491 76.7534 19.4425V19.3456C76.7534 19.2971 76.7051 19.2486 76.6567 19.2486H76.6326C76.4151 19.2486 76.2459 19.0789 76.2459 18.8607V9.6486C76.2701 9.45466 76.4392 9.28497 76.6326 9.28497ZM79.9676 22.0365H78.1067C78.0584 22.0365 78.0101 22.085 78.0101 22.1335V22.2304C78.0101 22.2789 78.0584 22.3274 78.1067 22.3274H78.4451H78.4934C78.6626 22.3274 78.6867 22.3759 78.5901 22.6425L75.7142 29.7213C75.7142 29.7213 75.6417 29.8668 75.5209 29.8668C75.4001 29.8668 75.3276 29.7456 75.3276 29.7213L73.5634 25.7941L74.8684 22.5213C74.8684 22.5213 74.9651 22.3031 75.4242 22.3031H75.5209C75.5692 22.3031 75.6176 22.2547 75.6176 22.2062V22.1092C75.6176 22.0607 75.5692 22.0122 75.5209 22.0122H73.6359C73.5876 22.0122 73.5392 22.0607 73.5392 22.1092V22.2062C73.5392 22.2547 73.5876 22.3031 73.6359 22.3031H73.9742H74.0226C74.1917 22.3031 74.2159 22.3516 74.1192 22.6183L73.2251 24.8244C73.2009 24.8486 73.2009 24.8486 73.1526 24.8486C73.1284 24.8486 73.0801 24.8244 73.0801 24.8001L72.0409 22.4971C71.9201 22.2789 71.9926 22.2789 72.1617 22.2789H72.4276H72.6209C72.6692 22.2789 72.7176 22.2304 72.7176 22.1819V22.085C72.7176 22.0365 72.6692 21.988 72.6209 21.988H70.0592C70.0109 21.988 69.9626 22.0365 69.9626 22.085V22.1819C69.9626 22.2304 70.0109 22.2789 70.0592 22.2789H70.1559C70.5184 22.2789 70.5909 22.4971 70.5909 22.4971L72.4517 26.5941L71.1709 29.7698C71.1467 29.8183 71.0742 29.8668 71.0017 29.8668C70.8809 29.8668 70.8326 29.7213 70.8326 29.7213C70.8326 29.7213 70.8326 29.7213 70.8084 29.7456L67.2801 22.788C67.2076 22.5941 67.0142 22.3031 67.1834 22.3031H67.4492H67.6426C67.6909 22.3031 67.7392 22.2547 67.7392 22.2062V22.1092C67.7392 22.0607 67.6909 22.0122 67.6426 22.0122H65.0809C65.0326 22.0122 64.9842 22.0607 64.9842 22.1092V22.2062C64.9842 22.2547 65.0326 22.3031 65.0809 22.3031H65.2017C65.5401 22.3031 65.6367 22.5213 65.6367 22.5213L70.6151 32.4365L70.6392 32.485C70.6392 32.485 70.6634 32.5334 70.7117 32.5334C70.7601 32.5334 70.8084 32.5092 70.8326 32.485L72.8626 27.4425L75.1342 32.4122L75.1584 32.485C75.1584 32.485 75.1826 32.5334 75.2309 32.5334C75.2792 32.5334 75.3276 32.5335 75.3517 32.485C75.3517 32.485 75.3517 32.4607 75.3759 32.4365L79.2909 22.5698C79.2909 22.5698 79.3876 22.3516 79.8467 22.3516H79.9434C79.9917 22.3516 80.0401 22.3031 80.0401 22.2547V22.1577C80.0401 22.1092 80.0159 22.0607 79.9676 22.0365ZM78.7592 1.62436H78.3484H66.3134L61.0934 6.83648V33.285L66.3134 38.4971H78.7592L83.9792 33.285V6.83648L78.7592 1.62436ZM82.8676 32.4122V32.7759L78.3001 37.3335H66.7726L62.2051 32.7759V7.2486L66.7726 2.69103H78.3001L82.8676 7.2486V32.4122Z" fill="#7A809A"/>
<path fill-rule="evenodd" clip-rule="evenodd" d="M23.7558 46.5941C23.8041 46.5941 23.8525 46.5456 23.8525 46.4971V46.4001C23.8525 46.3516 23.8283 46.3274 23.78 46.3274H23.3933H21.895C21.8466 46.3274 21.8225 46.3516 21.8225 46.4001V46.4971C21.8225 46.5456 21.8708 46.5698 21.895 46.5698H21.9191C22.1125 46.5698 22.2816 46.7395 22.2816 46.9334V46.9092V50.2789C22.2816 50.4971 22.1366 50.6668 21.9433 50.691H18.0041C17.8108 50.6668 17.69 50.5213 17.6658 50.3031V46.9092C17.6658 46.7153 17.835 46.5698 18.0283 46.5698H18.0525C18.1008 46.5698 18.125 46.5213 18.125 46.4971V46.4001C18.125 46.3516 18.0766 46.3274 18.0525 46.3274H17.6658H16.1916C16.1433 46.3274 16.095 46.3516 16.095 46.4001V46.4971C16.095 46.5456 16.1433 46.5698 16.1916 46.5698C16.385 46.5698 16.5541 46.7395 16.5541 46.9334V46.9092V55.2728C16.5541 55.4668 16.385 55.6365 16.1916 55.6365C16.1433 55.6365 16.095 55.6607 16.095 55.7092V55.8062C16.095 55.8547 16.1433 55.8789 16.1916 55.8789H16.5783H18.0525C18.1008 55.8789 18.125 55.8304 18.125 55.8062V55.7577C18.125 55.7092 18.0766 55.685 18.0525 55.685H18.0283C17.835 55.685 17.69 55.5395 17.6658 55.3456V51.685C17.6658 51.491 17.7866 51.3456 17.9558 51.2971H21.9916C22.1608 51.3456 22.2816 51.5153 22.2816 51.7092V55.3213C22.2816 55.5153 22.1125 55.685 21.9191 55.685H21.895C21.8466 55.685 21.8225 55.7092 21.8225 55.7577V55.8547C21.8225 55.9031 21.8708 55.9274 21.895 55.9274H22.2816H23.7558C23.8041 55.9274 23.8283 55.8789 23.8283 55.8547V55.7577C23.8283 55.7092 23.8041 55.685 23.7558 55.685H23.7316C23.5383 55.685 23.3933 55.5395 23.3691 55.3456V46.9577C23.3933 46.7395 23.5625 46.5941 23.7558 46.5941ZM30.015 51.1274H28.5408C28.2991 51.1274 28.3233 50.9092 28.3233 50.9092L29.1208 48.4365C29.145 48.3395 29.1933 48.291 29.2658 48.291C29.3383 48.291 29.3866 48.4365 29.3866 48.4365L30.2083 50.9092C30.2083 51.1274 30.015 51.1274 30.015 51.1274ZM33.5191 55.6607H33.3258C32.8666 55.6607 32.7216 55.1274 32.7216 55.1274L29.6525 46.3516C29.6041 46.1819 29.435 46.085 29.2658 46.085C29.0966 46.085 28.9516 46.2062 28.9033 46.3516V46.3759L25.955 55.0789C25.955 55.0789 25.81 55.685 25.3266 55.685H25.1333C25.085 55.685 25.0608 55.7334 25.0608 55.7577V55.8547C25.0608 55.9031 25.1091 55.9274 25.1333 55.9274H27.3808C27.4291 55.9274 27.4533 55.8789 27.4533 55.8547V55.7577C27.4533 55.7092 27.4291 55.685 27.3808 55.685H27.2358C27.0908 55.685 26.9216 55.5395 26.9941 55.2971L28.0091 52.2425C28.0575 52.0486 28.2266 51.9516 28.42 51.9516H30.2083C30.4016 51.9516 30.5708 52.0486 30.6191 52.2425L30.6433 52.3395L31.6341 55.2971C31.7066 55.5395 31.5616 55.685 31.3925 55.685H31.2475C31.1991 55.685 31.175 55.7334 31.175 55.7577V55.8547C31.175 55.9031 31.2233 55.9274 31.2475 55.9274H33.4708C33.5191 55.9274 33.5433 55.8789 33.5433 55.8547V55.7577C33.6158 55.7092 33.5675 55.6607 33.5191 55.6607ZM36.7333 50.0365V46.9577H38.0141C38.0141 46.9577 40.0683 46.885 40.0683 48.8971C40.0683 50.1092 39.44 50.8122 38.4491 50.8122C37.6033 50.8122 36.9266 50.3031 36.7333 50.0365ZM43.6691 54.9092C43.5483 54.7637 43.355 54.9092 43.355 54.9092C43.1375 55.0547 43.0408 55.2728 42.6541 55.3213C42.5091 55.3456 42.3883 55.3456 42.1466 55.2244C41.0591 54.7153 39.0291 51.4668 39.0291 51.4668C41.1316 51.0304 41.1558 49.2122 41.1558 49.2122C41.1558 46.0607 37.9416 46.3274 37.9416 46.3274H35.0175C34.9691 46.3274 34.945 46.3759 34.945 46.4001V46.4971C34.945 46.5456 34.9933 46.5698 35.0175 46.5698C35.0175 46.5698 35.5491 46.5456 35.6216 47.1031V55.2728C35.6216 55.4668 35.4525 55.6365 35.2591 55.6365H35.235C35.1866 55.6365 35.1625 55.6607 35.1625 55.7092V55.8062C35.1625 55.8547 35.2108 55.8789 35.235 55.8789H35.6216H37.12C37.1683 55.8789 37.1925 55.8304 37.1925 55.8062V55.7577C37.1925 55.7092 37.1441 55.685 37.12 55.685H37.0958C36.9025 55.685 36.7575 55.5395 36.7333 55.3456V51.0062L37.2166 51.2728C38.135 51.8062 38.8841 53.2122 39.875 54.4001C40.9383 55.6607 41.7841 55.8789 41.7841 55.8789C42.775 56.1456 43.4758 55.3698 43.4758 55.3698C43.4758 55.3698 43.79 55.0547 43.6691 54.9092ZM46.4966 50.0365V46.9577H47.7775C47.7775 46.9577 49.8316 46.885 49.8316 48.8971C49.8316 50.1092 49.2033 50.8122 48.2125 50.8122C47.3425 50.8122 46.6658 50.3031 46.4966 50.0365ZM53.4325 54.9092C53.3116 54.7637 53.1183 54.9092 53.1183 54.9092C52.9008 55.0547 52.8041 55.2728 52.4175 55.3213C52.2725 55.3456 52.1516 55.3456 51.91 55.2244C50.8225 54.7153 48.7925 51.4668 48.7925 51.4668C50.8708 51.0304 50.9191 49.2122 50.9191 49.2122C50.9191 46.0607 47.705 46.3274 47.705 46.3274H44.7808C44.7325 46.3274 44.6841 46.3759 44.6841 46.4001V46.4971C44.6841 46.5456 44.7325 46.5698 44.7808 46.5698C44.7808 46.5698 45.3125 46.5456 45.385 47.1031V55.2728C45.385 55.4668 45.2158 55.6365 45.0225 55.6365H44.9983C44.95 55.6365 44.9258 55.6607 44.9258 55.7092V55.8062C44.9258 55.8547 44.9741 55.8789 44.9983 55.8789H45.385H46.8833C46.9316 55.8789 46.9558 55.8304 46.9558 55.8062V55.7577C46.9558 55.7092 46.9075 55.685 46.8833 55.685H46.8591C46.6658 55.685 46.5208 55.5395 46.4966 55.3456V51.0062L46.98 51.2728C47.8983 51.8062 48.6475 53.2122 49.6141 54.4001C50.6775 55.6607 51.5233 55.8789 51.5233 55.8789C52.5141 56.1456 53.215 55.3698 53.215 55.3698C53.215 55.3698 53.5291 55.0547 53.4325 54.9092ZM61.3591 46.3274H59.6433C59.595 46.3274 59.5708 46.3759 59.5708 46.4001V46.4971C59.5708 46.5456 59.6191 46.5698 59.6433 46.5698H59.9575H60.0058C60.175 46.5698 60.1266 46.6425 60.0058 46.8365L57.4925 50.3516C57.42 50.4244 57.3716 50.3274 57.3716 50.3274L54.8341 46.8607C54.6891 46.6668 54.6166 46.5698 54.7616 46.5698H54.9066H55.1966C55.245 46.5698 55.2691 46.5213 55.2691 46.4971V46.4001C55.2691 46.3516 55.2208 46.3274 55.1966 46.3274H52.8525C52.8041 46.3274 52.78 46.3516 52.78 46.4001V46.4971C52.78 46.5456 52.8283 46.5698 52.8525 46.5698H52.9491C53.1908 46.5698 53.36 46.788 53.36 46.788L56.4775 51.0304C56.5016 51.0547 56.55 51.1759 56.5741 51.3698V55.2971C56.5741 55.491 56.405 55.6607 56.2116 55.6607H56.1875C56.1391 55.6607 56.115 55.685 56.115 55.7334V55.8304C56.115 55.8789 56.1633 55.9031 56.1875 55.9031H56.5741H58.0483C58.0966 55.9031 58.1208 55.8547 58.1208 55.8304V55.7577C58.1208 55.7092 58.0725 55.685 58.0483 55.685C57.855 55.685 57.71 55.5395 57.6858 55.3456V51.3941C57.6858 51.2486 57.7341 51.1274 57.7583 51.0789L60.9 46.788C60.9 46.788 61.0691 46.5941 61.2866 46.5941H61.3833C61.4316 46.5941 61.4558 46.5456 61.4558 46.5213V46.4244C61.4558 46.3759 61.4075 46.3274 61.3591 46.3274ZM80.3058 46.3759H78.59C78.5416 46.3759 78.5175 46.4001 78.5175 46.4486V46.5456C78.5175 46.5941 78.5658 46.6183 78.59 46.6183H78.9041H78.9525C79.1216 46.6183 79.1216 46.6668 79.025 46.9092L76.3666 53.3577C76.3666 53.3577 76.3183 53.4789 76.1975 53.4789C76.1008 53.4789 76.0283 53.3819 76.0041 53.3577L74.3608 49.7698L75.5691 46.788C75.5691 46.788 75.6416 46.5941 76.0766 46.5941H76.1733C76.2216 46.5941 76.2458 46.5698 76.2458 46.5213V46.4244C76.2458 46.3759 76.1975 46.3516 76.1733 46.3516H74.4575C74.4091 46.3516 74.385 46.4001 74.385 46.4244V46.5213C74.385 46.5698 74.4333 46.5941 74.4575 46.5941H74.82C74.965 46.5941 74.9891 46.6425 74.8925 46.885L74.0708 48.8971C74.0466 48.9213 74.0466 48.9213 74.0225 48.9213C73.9983 48.9213 73.9741 48.8971 73.95 48.8728L73.0075 46.788C72.8866 46.5941 72.9591 46.5941 73.1283 46.5941H73.5391C73.5875 46.5941 73.6116 46.5456 73.6116 46.5213V46.4244C73.6116 46.3759 73.5633 46.3516 73.5391 46.3516H71.195C71.1466 46.3516 71.1225 46.4001 71.1225 46.4244V46.5213C71.1225 46.5698 71.1466 46.5941 71.195 46.5941H71.2916C71.6058 46.5941 71.7025 46.8122 71.7025 46.8122L73.4183 50.5456L72.2341 53.4304C72.21 53.4789 72.1616 53.5274 72.0891 53.5274C71.9925 53.5274 71.9441 53.4062 71.9441 53.4062C71.9441 53.4062 71.9441 53.4062 71.92 53.4304L68.6575 47.0304C68.585 46.8365 68.4158 46.5941 68.585 46.5941H68.9958C69.0441 46.5941 69.0925 46.5456 69.0925 46.5213V46.4244C69.0925 46.3759 69.0441 46.3516 68.9958 46.3516H66.6516C66.6033 46.3516 66.5791 46.4001 66.5791 46.4244V46.5213C66.5791 46.5698 66.6275 46.5941 66.6516 46.5941H66.7483C67.0625 46.5941 67.1591 46.8122 67.1591 46.8122L71.7508 55.8789C71.7508 55.8789 71.775 55.9274 71.8233 55.9274C71.8716 55.9274 71.8958 55.9274 71.92 55.8789L73.7808 51.2728L75.8591 55.8062L75.8833 55.8789C75.8833 55.8789 75.9075 55.9274 75.9558 55.9274C76.0041 55.9274 76.0283 55.9274 76.0525 55.8789C76.0525 55.8789 76.0525 55.8547 76.0766 55.8304L79.6775 46.8122C79.6775 46.8122 79.75 46.6183 80.185 46.6183H80.2816C80.33 46.6183 80.3541 46.5941 80.3541 46.5456V46.4486C80.3783 46.4001 80.3541 46.3759 80.3058 46.3759ZM83.7133 46.5941C83.7616 46.5941 83.81 46.5456 83.81 46.4971V46.4001C83.81 46.3516 83.7616 46.3274 83.7375 46.3274H83.3508H81.8525C81.8041 46.3274 81.78 46.3516 81.78 46.4001V46.4971C81.78 46.5456 81.8041 46.5698 81.8525 46.5698H81.8766C82.07 46.5698 82.2391 46.7395 82.2391 46.9334V46.9092V55.2728C82.2391 55.4668 82.07 55.6365 81.8766 55.6365H81.8525C81.8041 55.6365 81.78 55.6607 81.78 55.7092V55.8062C81.78 55.8547 81.8041 55.8789 81.8525 55.8789H82.2391H83.7133C83.7616 55.8789 83.7858 55.8304 83.7858 55.8062V55.7577C83.7858 55.7092 83.7375 55.685 83.7133 55.685H83.6891C83.4958 55.685 83.3508 55.5395 83.3266 55.3456V46.9577C83.375 46.7395 83.52 46.5941 83.7133 46.5941ZM94.0083 46.3274H92.4858C92.4375 46.3274 92.3891 46.3759 92.3891 46.4001V46.4971C92.3891 46.5456 92.4375 46.5698 92.4616 46.5698C92.655 46.5698 92.8241 46.7395 92.8241 46.9334V53.1153L87.87 46.4971C87.87 46.4971 87.7975 46.3031 87.5558 46.3031H86.275C86.2266 46.3031 86.2025 46.3516 86.2025 46.3759V46.4728C86.2025 46.5213 86.2266 46.5456 86.275 46.5456C86.4925 46.5456 86.8066 47.0062 86.8066 47.0062L86.855 47.0547V55.2486C86.855 55.4425 86.6858 55.6122 86.4925 55.6122H86.4683C86.42 55.6122 86.3958 55.6607 86.3958 55.685V55.7819C86.3958 55.8304 86.4441 55.8547 86.4683 55.8547H87.9908C88.0391 55.8547 88.0633 55.8062 88.0633 55.7819V55.7577C88.0633 55.7092 88.015 55.685 87.9908 55.685C87.7975 55.685 87.6283 55.5153 87.6283 55.3213V48.1456L93.2591 55.7092C93.2591 55.7092 93.38 55.9031 93.4283 55.9031C93.4283 55.9031 93.5975 55.9759 93.5975 55.7819V46.9577C93.5975 46.7638 93.7666 46.5941 93.96 46.5941C94.0083 46.5941 94.0325 46.5456 94.0325 46.5213V46.4244C94.0808 46.3516 94.0325 46.3274 94.0083 46.3274ZM128.881 46.3274H127.334C127.286 46.3274 127.262 46.3759 127.262 46.4001V46.4971C127.262 46.5456 127.286 46.5698 127.334 46.5698H127.358C127.552 46.5698 127.721 46.7395 127.721 46.9334V53.1153L122.767 46.5213C122.767 46.5213 122.694 46.3274 122.452 46.3274H121.172C121.123 46.3274 121.099 46.3759 121.099 46.4001V46.4971C121.099 46.5456 121.147 46.5698 121.172 46.5698C121.389 46.5698 121.727 47.0304 121.727 47.0304L121.776 47.0789V55.2728C121.776 55.4668 121.607 55.6365 121.413 55.6365H121.389C121.341 55.6365 121.317 55.685 121.317 55.7092V55.8062C121.317 55.8547 121.365 55.8789 121.389 55.8789H122.912C122.96 55.8789 122.984 55.8304 122.984 55.8062V55.7577C122.984 55.7092 122.936 55.685 122.912 55.685H122.887C122.694 55.685 122.525 55.5153 122.525 55.3213V48.1456L128.156 55.7092C128.156 55.7092 128.277 55.9031 128.325 55.9031C128.325 55.9031 128.47 55.9759 128.47 55.7819V46.9577C128.47 46.7638 128.639 46.5941 128.832 46.5941H128.857C128.905 46.5941 128.929 46.5456 128.929 46.5213V46.4244C128.953 46.3759 128.929 46.3274 128.881 46.3274ZM99.1316 50.0365L98.6966 49.9153C97.875 49.6486 97.4158 49.1638 97.3433 48.5334C97.295 48.0244 97.44 47.588 97.7541 47.2486C98.0925 46.885 98.5758 46.7153 99.18 46.7153C100.437 46.7153 100.437 47.8062 100.437 47.8547C100.437 48.0001 100.461 48.0971 100.509 48.1456L100.582 48.1698H100.727C100.775 48.1698 100.823 48.1456 100.847 48.1213C100.92 48.0244 100.896 47.8547 100.896 47.8304V46.6183H100.582V46.7153C100.098 46.2547 99.47 46.1819 99.4216 46.1819C98.2616 46.0607 97.5608 46.4486 97.15 46.788C96.6908 47.1759 96.4008 47.7334 96.3766 48.291C96.3283 49.285 96.5941 50.4244 99.0108 51.1516C100.122 51.491 100.872 52.194 101.041 53.0425C101.162 53.6728 100.92 54.3274 100.388 54.7395C99.325 55.588 97.7058 54.9334 97.1983 54.5941C97.005 54.4728 96.7633 54.1577 96.7633 53.4304V53.4062C96.7633 53.285 96.6666 53.2607 96.6183 53.2607H96.4975L96.4008 53.3092C96.3283 53.3577 96.3283 53.4789 96.3283 53.4789V54.885L96.3525 54.9092C97.73 56.0486 99.1316 55.9759 99.1316 55.9759C99.1558 55.9759 101.911 55.9759 102.152 53.4062C102.467 50.885 100.292 50.3274 99.1316 50.0365ZM109.185 46.3274H103.53C103.53 46.3274 103.24 46.3274 103.24 46.5698V47.9031C103.24 47.9031 103.264 48.1698 103.433 48.1698C103.602 48.1698 103.651 47.9516 103.651 47.9516C103.651 47.9516 103.772 46.9577 104.787 46.9577H105.85V55.3456C105.85 55.5395 105.681 55.7092 105.487 55.7092H105.463C105.415 55.7092 105.391 55.7334 105.391 55.7819V55.8789C105.391 55.9274 105.439 55.9516 105.463 55.9516H105.85H107.324C107.372 55.9516 107.397 55.9031 107.397 55.8789V55.7577C107.397 55.7092 107.372 55.685 107.324 55.685H107.3C107.107 55.685 106.962 55.5395 106.937 55.3456V46.9334H107.88C108.895 46.9334 109.016 47.9274 109.016 47.9274C109.016 47.9274 109.064 48.1456 109.233 48.1456C109.402 48.1456 109.427 47.8789 109.427 47.8789V46.5698C109.451 46.3274 109.185 46.3274 109.185 46.3274ZM115.033 55.3698C113.172 55.3213 111.674 53.4062 111.722 51.0789C111.771 48.7516 113.342 46.885 115.202 46.9334C117.087 46.9819 118.562 48.8971 118.513 51.2244C118.465 53.5516 116.918 55.4183 115.033 55.3698ZM115.227 46.3516C112.689 46.3031 110.587 48.388 110.538 51.0547C110.49 53.6971 112.496 55.8789 115.033 55.9274C117.571 55.9759 119.673 53.8668 119.722 51.2244C119.77 48.6062 117.764 46.4001 115.227 46.3516Z" fill="#7A809A"/>
</g>
<defs>
<clipPath id="clip0_171_17482">
<rect width="145" height="56" fill="white"/>
</clipPath>
</defs>
</svg>
