<svg width="104" height="56" viewBox="0 0 104 56" fill="none" xmlns="http://www.w3.org/2000/svg">
<g clip-path="url(#clip0_176_17502)">
<path d="M66.1747 0.972667H63.1196C63.1196 6.50669 61.7212 9.01638 58.8112 10.756V0.971191H54.1107V12.7909C53.2331 13.098 52.2905 13.4163 51.2798 13.7618C50.7131 13.9545 50.1641 14.1465 49.6306 14.3363V0.971191H44.9278V16.2885C40.1725 18.6963 37.5977 22.0278 37.5977 29.5458H40.652C40.652 24.4127 41.912 21.8705 44.9278 19.9781V29.5495H49.6306V17.8169C50.4282 17.5201 51.282 17.2218 52.2025 16.9065C52.8521 16.6843 53.4884 16.4679 54.1107 16.2538V29.5495H58.8112V14.4027C63.2913 12.243 66.1747 9.00752 66.1747 0.972667ZM48.3723 51.5962H42.8112L42.8088 47.4939H48.3899C50.0428 47.4939 50.7597 48.1385 50.7597 49.6034C50.7597 50.6999 50.3108 51.5962 48.3723 51.5962ZM47.8771 41.2407C49.661 41.2407 50.21 41.8868 50.21 42.9618C50.21 44.0354 49.7343 44.8026 47.9444 44.8026L42.8088 44.8043V41.241H47.8771V41.2407ZM52.1145 46.015C53.1045 45.2434 53.6705 44.1188 53.6705 42.7588C53.6705 41.4024 53.1193 38.2496 48.0347 38.2496H39.6273V54.5755H48.5682C52.1685 54.5755 54.235 52.7614 54.235 49.6086C54.235 48.0706 53.5003 46.8404 52.1145 46.015ZM89.6608 38.2493V41.5697H94.8045V54.5752H98.012V41.5697H103.027V38.2493H89.6608ZM79.588 51.7975C76.4752 51.7975 74.0343 49.4104 74.0343 46.3624C74.0343 43.3145 76.4752 40.9288 79.588 40.9288C82.7044 40.9288 85.1424 43.3145 85.1424 46.3624C85.1424 49.4104 82.7044 51.7975 79.588 51.7975ZM79.588 37.7841C74.6736 37.7841 70.821 41.552 70.821 46.3632C70.821 51.1751 74.6736 54.9415 79.588 54.9415C84.5053 54.9415 88.3572 51.1751 88.3572 46.3632C88.3572 41.552 84.5053 37.7841 79.588 37.7841ZM58.7863 38.2493V54.5715H69.827V51.2688H61.9885V38.2493H58.7863ZM32.1453 38.2499V46.7706C32.1453 49.2478 31.8886 51.8734 27.8214 51.8734C23.7527 51.8734 23.4634 49.3032 23.4634 46.7706V38.2499H20.2759V46.9729C20.2759 50.8685 21.3665 55.0292 27.8214 55.0292C34.2747 55.0292 35.3594 50.8087 35.3594 46.9729V38.2499H32.1453ZM12.4192 38.2493V44.3282H4.17751V38.2456H0.973022V54.5774H4.17751V47.6693H12.4192V54.5774H15.6015V38.2493H12.4192Z" fill="#7A809A"/>
</g>
<defs>
<clipPath id="clip0_176_17502">
<rect width="104" height="56" fill="white"/>
</clipPath>
</defs>
</svg>
