<svg width="105" height="56" viewBox="0 0 105 56" fill="none" xmlns="http://www.w3.org/2000/svg">
<g clip-path="url(#clip0_168_17443)">
<path d="M14.2122 39.0305H8.87699L7.80098 41.8439H6.23181L10.9393 30.0098H12.374L16.9918 41.8439H15.333L14.2122 39.0305ZM9.37016 37.7354H13.719L11.5222 32.064L9.37016 37.7354Z" fill="#7A809A"/>
<path d="M1.52434 31.2602V35.5472H3.58668C3.58668 35.5472 3.94535 35.5472 4.16951 35.5472C4.79718 35.5472 5.24552 35.4133 5.60418 35.056C6.00769 34.6988 6.18702 34.0736 6.18702 33.4484C6.18702 32.8232 6.00769 32.2426 5.60418 31.796C5.20068 31.3495 4.43851 31.3048 4.30401 31.3048C4.16951 31.3048 4.07985 31.3048 4.07985 31.3048H1.52434V31.2602ZM0 30.0098H4.07985C4.70752 30.0098 5.78352 30.1437 6.54569 30.7689C7.57686 31.5728 7.75619 32.6892 7.75619 33.4037C7.75619 34.1182 7.57686 35.1007 6.85952 35.7705C5.91802 36.6637 4.97652 36.7976 3.58668 36.7976H1.52434V41.8439H0V30.0098Z" fill="#7A809A"/>
<path d="M54.3831 30.0098H55.9074V35.1007H61.2426V30.0098H62.7221V41.8439H61.2426V36.3957H55.9074V41.8439H54.3831V30.0098Z" fill="#7A809A"/>
<path d="M66.5329 30.0098H65.0085V41.8439H66.5329V30.0098Z" fill="#7A809A"/>
<path d="M68.7297 30.0098H70.2541V40.5488H75.4099V41.8439H68.7297V30.0098Z" fill="#7A809A"/>
<path d="M23.5376 30.0098V31.3048H19.9061V41.8439H18.4266V31.3048H14.795V30.0098H23.5376Z" fill="#7A809A"/>
<path d="M31.249 30.0098L30.4868 31.3048H26.0035V35.0114H30.2178V36.3511H26.0035V40.5488H30.3971L31.1593 41.8439H24.4791V30.0098H31.249Z" fill="#7A809A"/>
<path d="M33.939 35.5472L39.05 30.0098H40.933L37.0325 34.2522L41.0227 41.8439H39.319L36.0013 35.324L33.939 37.5122V41.8439H32.4595V30.0098H33.939V35.5472Z" fill="#7A809A"/>
<path d="M55.2797 55.1069H58.149L58.6422 56H54.2485V48.1851H59.3147L61.6012 54.6603L63.9326 48.1851H64.9637L62.0047 56H61.0632L58.5526 49.0782H55.2797V51.4897H58.0145V52.3828H55.2797V55.1069Z" fill="#7A809A"/>
<path d="M46.9855 31.2602V35.5472H49.0927C49.0927 35.5472 49.4514 35.5472 49.6755 35.5472C50.3032 35.5472 50.7515 35.4133 51.1102 35.056C51.5137 34.6988 51.693 34.0736 51.693 33.4484C51.693 32.8232 51.5137 32.2426 51.1102 31.796C50.7067 31.3495 49.9445 31.3048 49.81 31.3048C49.6755 31.3048 49.5859 31.3048 49.5859 31.3048H46.9855V31.2602ZM45.506 30.0098H49.5859C50.2135 30.0098 51.2895 30.1437 52.0517 30.7689C53.0829 31.5728 53.2622 32.6892 53.2622 33.4037C53.2622 34.1182 53.0829 35.1007 52.3655 35.7705C51.424 36.6637 50.4825 36.7976 49.0927 36.7976H46.9855V41.8439H45.4612V30.0098H45.506Z" fill="#7A809A"/>
<path d="M77.9206 30.0098H76.3962V41.8439H77.9206V30.0098Z" fill="#7A809A"/>
<path d="M81.6418 31.2602V35.5472H83.749C83.749 35.5472 84.1076 35.5472 84.3318 35.5472C84.9595 35.5472 85.4078 35.4133 85.7665 35.056C86.17 34.6988 86.3493 34.0736 86.3493 33.4484C86.3493 32.8232 86.17 32.2426 85.7665 31.796C85.363 31.3495 84.6008 31.3048 84.4663 31.3048C84.3318 31.3048 84.2421 31.3048 84.2421 31.3048H81.6418V31.2602ZM80.1175 30.0098H84.1973C84.825 30.0098 85.901 30.1437 86.6632 30.7689C87.6943 31.5728 87.8737 32.6892 87.8737 33.4037C87.8737 34.1182 87.6943 35.1007 86.977 35.7705C86.0355 36.6637 85.094 36.7976 83.7041 36.7976H81.597V41.8439H80.0726L80.1175 30.0098Z" fill="#7A809A"/>
<path d="M90.6981 31.2602V35.5472H92.8052C92.8052 35.5472 93.1639 35.5472 93.3881 35.5472C94.0158 35.5472 94.4641 35.4133 94.8228 35.056C95.2263 34.6988 95.4056 34.0736 95.4056 33.4484C95.4056 32.8232 95.2263 32.2426 94.8228 31.796C94.4193 31.3495 93.6571 31.3048 93.5226 31.3048C93.3881 31.3048 93.2984 31.3048 93.2984 31.3048H90.6981V31.2602ZM89.1737 30.0098H93.2536C93.8813 30.0098 94.9573 30.1437 95.7194 30.7689C96.7506 31.5728 96.9299 32.6892 96.9299 33.4037C96.9299 34.1182 96.7506 35.1007 96.0333 35.7705C95.0918 36.6637 94.1503 36.7976 92.7604 36.7976H90.6532V41.8439H89.1289L89.1737 30.0098Z" fill="#7A809A"/>
<path d="M105 30.0098L104.238 31.3048H99.7544V35.0114H103.924V36.3511H99.7544V40.5488H104.148L104.865 41.8439H98.2301V30.0098H105Z" fill="#7A809A"/>
<path d="M40.8433 52.0255V54.8389C40.2156 55.4641 39.4086 56.134 37.7946 56.134C36.0012 56.134 34.3424 54.6156 34.3424 52.2042C34.3424 49.9266 35.8667 48.0957 38.0188 48.0957C39.7224 48.0957 40.5743 49.1675 40.8881 49.614L40.1708 50.2839C40.1708 50.2839 39.4534 48.9442 38.0188 48.9442C36.5841 48.9442 35.4632 50.2392 35.4632 52.2488C35.4632 54.1691 36.6737 55.3302 37.9739 55.3302C39.0948 55.3302 39.8569 54.571 39.9018 54.5263V52.9187H37.5256V52.0702H40.8433V52.0255Z" fill="#7A809A"/>
<path d="M46.6269 48.1851L46.1337 49.0782H43.1747V51.4897H45.9544V52.3828H43.1747V55.1069H46.044L46.5372 56H42.1884V48.1851H46.6269Z" fill="#7A809A"/>
<path d="M51.962 48.1851H52.9035V56H51.9172L48.3753 49.6141V56H47.4338V48.1851H48.6892L51.962 54.0798V48.1851Z" fill="#7A809A"/>
<path d="M70.0299 48.1851L69.5816 49.0782H66.6226V51.4897H69.3574V52.3828H66.6226V55.1069H69.4919L69.9851 56H65.6362V48.1851H70.0299Z" fill="#7A809A"/>
<path d="M56.9833 12.0126C57.7903 12.0126 58.5973 11.5214 58.5973 10.8962C58.5973 10.6729 58.418 10.2263 57.7455 10.2263C56.8937 10.2263 56.1763 11.1195 55.4142 11.1195C54.7417 11.1195 54.652 10.5836 54.652 10.5836C55.0555 10.5836 55.19 10.5836 55.6832 10.3156C56.1315 10.0923 56.7592 9.42249 57.2075 8.97592C57.611 8.52935 58.2835 7.94881 59.0905 7.94881C59.8975 7.94881 60.7045 8.44003 60.7045 9.37783C60.7045 10.6282 59.7182 10.9855 59.7182 11.4321C59.7182 11.566 59.763 11.7447 60.032 11.7447C60.4355 11.7447 61.1977 11.1641 61.9599 11.1641C62.991 11.1641 63.8877 12.3252 63.8877 12.3252C63.8877 12.3252 62.991 13.4863 61.9599 13.4863C61.1977 13.4863 60.4355 12.9057 60.032 12.9057C59.763 12.9057 59.7182 13.0844 59.7182 13.2183C59.7182 13.6649 60.7045 14.0668 60.7045 15.2726C60.7045 16.2104 59.8975 16.7016 59.0905 16.7016C58.2835 16.7016 57.611 16.1211 57.2075 15.6745C56.804 15.2279 56.1763 14.5581 55.6832 14.3348C55.19 14.1115 55.0555 14.0668 54.652 14.0668C54.652 14.0668 54.7417 13.5309 55.4142 13.5309C56.1763 13.5309 56.8937 14.4241 57.7455 14.4241C58.418 14.4241 58.5973 13.9775 58.5973 13.7542C58.5973 13.0844 57.7903 12.6378 56.9833 12.6378H52.5V17.1035C52.5 17.9073 52.9932 18.7112 53.6208 18.7112C53.845 18.7112 54.2933 18.5325 54.2933 17.8627C54.2933 17.0142 53.3967 16.2997 53.3967 15.5405C53.3967 14.8707 53.9347 14.7813 53.9347 14.7813C53.9347 15.1833 53.9347 15.3172 54.2037 15.8085C54.4278 16.255 55.1003 16.8802 55.5487 17.3268C55.997 17.7287 56.5798 18.3986 56.5798 19.2024C56.5798 20.0062 56.0867 20.8101 55.1452 20.8101C53.8898 20.8101 53.5312 19.8276 53.0828 19.8276C52.9483 19.8276 52.769 19.8723 52.769 20.1402C52.769 20.5421 53.3518 21.3013 53.3518 22.0605C53.3518 23.0876 52.1862 23.9807 52.1862 23.9807C52.1862 23.9807 51.0205 23.0876 51.0205 22.0605C51.0205 21.3013 51.6033 20.5421 51.6033 20.1402C51.6033 19.8723 51.424 19.8276 51.2895 19.8276C50.8412 19.8276 50.4377 20.8101 49.2271 20.8101C48.2856 20.8101 47.7925 20.0062 47.7925 19.2024C47.7925 18.3986 48.3753 17.7287 48.8236 17.3268C49.272 16.9249 49.9445 16.2997 50.1686 15.8085C50.3928 15.3172 50.4376 15.1833 50.4376 14.7813C50.4376 14.7813 50.9756 14.8707 50.9756 15.5405C50.9756 16.2997 50.079 17.0142 50.079 17.8627C50.079 18.5325 50.5273 18.7112 50.7515 18.7112C51.424 18.7112 51.8723 17.9073 51.8723 17.1035V12.6378H47.389C46.582 12.6378 45.775 13.129 45.775 13.7542C45.775 13.9775 45.9543 14.4241 46.6268 14.4241C47.4786 14.4241 48.196 13.5309 48.9581 13.5309C49.6306 13.5309 49.7203 14.0668 49.7203 14.0668C49.3168 14.0668 49.1823 14.0668 48.6891 14.3348C48.2408 14.5581 47.6131 15.2279 47.1648 15.6745C46.7613 16.1211 46.0888 16.7016 45.2818 16.7016C44.4748 16.7016 43.6678 16.2104 43.6678 15.2726C43.6678 14.0222 44.6541 13.6649 44.6541 13.2183C44.6541 13.0844 44.6093 12.9057 44.3403 12.9057C43.9368 12.9057 43.1746 13.4863 42.4125 13.4863C41.3813 13.4863 40.4846 12.3252 40.4846 12.3252C40.4846 12.3252 41.3813 11.1641 42.4125 11.1641C43.1746 11.1641 43.9368 11.7447 44.3403 11.7447C44.6093 11.7447 44.6541 11.566 44.6541 11.4321C44.6541 10.9855 43.6678 10.5836 43.6678 9.37783C43.6678 8.44003 44.4748 7.94881 45.2818 7.94881C46.0888 7.94881 46.7613 8.52935 47.1648 8.97592C47.5683 9.42249 48.196 10.0923 48.6891 10.3156C49.1823 10.5389 49.3168 10.5836 49.7203 10.5836C49.7203 10.5836 49.6306 11.1195 48.9581 11.1195C48.196 11.1195 47.4786 10.2263 46.6268 10.2263C45.9543 10.2263 45.775 10.6729 45.775 10.8962C45.775 11.566 46.582 12.0126 47.389 12.0126H51.8723V7.59155C51.8723 6.78772 51.3792 5.98389 50.7515 5.98389C50.5273 5.98389 50.079 6.16252 50.079 6.83238C50.079 7.68086 50.9756 8.39538 50.9756 9.15455C50.9756 9.8244 50.4376 9.91372 50.4376 9.91372C50.4376 9.5118 50.4376 9.37783 50.1686 8.8866C49.9445 8.44003 49.272 7.81483 48.8236 7.36826C48.3753 6.96635 47.7925 6.29649 47.7925 5.49267C47.7925 4.68884 48.2856 3.88501 49.2271 3.88501C50.4825 3.88501 50.8412 4.86747 51.2895 4.86747C51.424 4.86747 51.6033 4.82281 51.6033 4.55487C51.6033 4.15295 51.0205 3.39378 51.0205 2.63461C51.0205 1.6075 52.1862 0.714355 52.1862 0.714355C52.1862 0.714355 53.3518 1.6075 53.3518 2.63461C53.3518 3.39378 52.769 4.15295 52.769 4.55487C52.769 4.82281 52.9483 4.86747 53.0828 4.86747C53.5312 4.86747 53.9347 3.88501 55.1452 3.88501C56.0867 3.88501 56.5798 4.68884 56.5798 5.49267C56.5798 6.29649 55.997 6.96635 55.5487 7.36826C55.1003 7.77018 54.4278 8.39538 54.2037 8.8866C53.9795 9.37783 53.9347 9.5118 53.9347 9.91372C53.9347 9.91372 53.3967 9.8244 53.3967 9.15455C53.3967 8.39538 54.2933 7.68086 54.2933 6.83238C54.2933 6.16252 53.845 5.98389 53.6208 5.98389C52.9483 5.98389 52.5 6.78772 52.5 7.59155V12.0573H56.9833V12.0126Z" fill="#7A809A"/>
</g>
<defs>
<clipPath id="clip0_168_17443">
<rect width="105" height="56" fill="white"/>
</clipPath>
</defs>
</svg>
