<svg width="130" height="59" viewBox="0 0 130 59" fill="none" xmlns="http://www.w3.org/2000/svg">
<g clip-path="url(#clip0_174_17489)">
<path fill-rule="evenodd" clip-rule="evenodd" d="M11.8973 58.0017V44.7293H17.7572V41.645H1.87726V44.7293H7.73718V58.0017H11.8973ZM51.0468 57.8336C47.8569 58.5497 43.7533 58.7608 40.7887 57.3979C38.2592 56.2884 36.6999 53.6466 36.3765 51.0606C36.0396 47.8842 37.2338 45.1025 39.7774 43.2332C42.7427 41.1118 47.4501 41.1811 50.6817 42.657V45.8898C48.2362 44.7649 44.5548 44.1053 42.2081 45.8898C40.5218 47.1822 40.0014 49.2343 40.4229 51.2851C40.7605 52.9009 42.1517 54.3627 43.6975 54.8966C44.7935 55.2475 46.1417 55.3598 47.3641 55.2059V52.5728L45.749 52.5781V49.4038H51.0434V57.8336H51.0468ZM67.0424 50.4399L67.037 58.0487H68.6144V41.7694H67.037L67.0424 49.1758H56.8885L56.8926 41.7694H55.3151V58.0487H56.8926L56.8885 50.4399H67.0424ZM97.2161 53.9828C97.2161 53.9828 96.1342 57.1087 92.6196 57.1087C89.7632 57.1087 88.8508 55.1043 88.8508 53.0845V43.95H87.2801L87.2774 52.7489C87.2774 58.077 91.2687 58.3735 92.3741 58.3735C95.7294 58.3735 97.2214 55.9267 97.2214 55.9267L97.2161 58.038H98.7922V43.95H97.2214L97.2161 53.9828ZM127.674 45.3452C127.674 45.3452 126.235 43.7227 124.437 43.7227C122.027 43.7227 119.56 47.4753 119.56 47.4753L119.566 43.9701H117.988V58.0588H119.56L119.566 49.1039C119.566 49.1039 121.798 45.2275 123.932 45.2275C125.397 45.2275 126.831 46.7922 126.831 46.7922L127.674 45.3452ZM22.589 54.8959L21.333 58.0998H16.9483L23.6245 41.7855H28.3804L35.6032 58.0998H31.2192L29.8805 54.8959H22.589ZM28.6191 51.9313L26.0814 45.8327L23.7355 51.9313H28.6191ZM73.2869 50.4514C73.2775 50.6147 73.2714 50.7701 73.2714 50.9348C73.2714 54.3775 75.5354 56.9507 78.8846 56.9507C81.905 56.9507 84.0983 54.8448 84.0983 54.8448V56.4747C84.0983 56.4747 82.0643 58.3473 78.7084 58.3473C73.6143 58.3473 71.6039 54.009 71.6039 50.9523C71.6039 46.9596 74.1973 43.6656 77.9681 43.6656C82.2311 43.6656 84.3653 46.9737 84.3653 50.4514H73.2869ZM73.4839 49.1644H82.5101C82.5101 49.1644 82.2136 45.1031 77.9594 45.1031C75.5576 45.1031 74.0077 46.8877 73.4839 49.1644ZM103.781 50.4514C103.771 50.6147 103.766 50.7701 103.766 50.9348C103.766 54.3775 106.028 56.9507 109.378 56.9507C112.399 56.9507 114.591 54.8448 114.591 54.8448V56.4747C114.591 56.4747 112.557 58.3473 109.203 58.3473C104.109 58.3473 102.097 54.009 102.097 50.9523C102.097 46.9596 104.692 43.6656 108.463 43.6656C112.724 43.6656 114.86 46.9737 114.86 50.4514H103.781ZM103.978 49.1644H113.003C113.003 49.1644 112.708 45.1031 108.452 45.1031C106.051 45.1031 104.502 46.8877 103.978 49.1644Z" fill="#7A809A"/>
<path fill-rule="evenodd" clip-rule="evenodd" d="M64.8309 35.0583L47.9027 25.86V0.0265509L81.7484 0.0258789L81.7497 25.8647L64.8309 35.0583Z" fill="#7A809A" stroke="#7A809A" stroke-width="0.145237" stroke-miterlimit="2.613"/>
<path fill-rule="evenodd" clip-rule="evenodd" d="M64.837 33.8882L48.949 25.1726L48.951 1.10156L80.6994 1.11165V25.1793L64.837 33.8882Z" fill="#7A809A" stroke="#7A809A" stroke-width="0.145237" stroke-miterlimit="2.613"/>
<path fill-rule="evenodd" clip-rule="evenodd" d="M50.5009 24.2757L64.8356 32.1319L79.1455 24.2797V17.3164L50.4975 17.3171L50.5009 24.2757Z" fill="#9096B3"/>
<path fill-rule="evenodd" clip-rule="evenodd" d="M79.1455 16.5644V2.65527L50.4982 2.65662L50.4975 16.5651L79.1455 16.5644Z" fill="#9096B3"/>
<path fill-rule="evenodd" clip-rule="evenodd" d="M60.8584 27.3376V28.3401L57.996 26.7701V18.6153H60.8591V19.5096H58.8446L58.8453 21.6854L60.8604 22.1292L60.8597 23.0134L58.8459 22.5777L58.8466 26.3034L60.8584 27.3376ZM73.3569 18.6146L76.9038 18.6139C77.168 18.5958 77.3146 18.7309 77.3489 18.9232V21.0063C77.3529 21.325 77.3119 21.444 77.0181 21.5194L76.0814 21.7265L77.8908 23.4168L77.1028 23.8411L75.0486 21.9396L74.229 22.1164V25.3883L73.3569 25.8597L73.3555 18.6247V18.6146H73.3569ZM53.1602 21.3405V24.174L52.3042 23.71L52.3035 18.6153H53.1602V20.4489L55.4544 20.9404V18.6153H56.3076V25.8563L55.4544 25.3957V21.8401L53.1602 21.3405ZM68.8101 28.3381V18.6153H71.6806V19.5089H69.6661V22.1662L71.6833 21.75V22.6402L69.6661 23.0874V26.8911L71.6819 25.9034V26.7721L68.8101 28.3381ZM62.5569 29.2236V18.6153H63.5863V28.5418L64.8363 29.1719L66.0809 28.5775V18.6153H67.111V29.2243L64.8356 30.4561L62.5569 29.2236Z" fill="#7A809A"/>
<path fill-rule="evenodd" clip-rule="evenodd" d="M74.2277 21.215V19.5206H76.3961C76.4647 19.5138 76.501 19.571 76.501 19.6295L76.4983 20.6683C76.4997 20.7403 76.46 20.7557 76.4022 20.7598L74.2277 21.215Z" fill="#7A809A"/>
<path d="M61.8549 11.7942L64.0617 11.7935L64.1747 11.608M64.1747 11.608C64.4705 12.7181 65.1691 13.8564 66.3344 14.701L66.3371 15.2752M66.3371 15.2752L64.061 15.2759V13.767H60.5L59.4572 15.2557H56.6096L56.935 14.7373V6.7842H54.8526V4.65674H61.7184V6.7842H59.4229V11.1971L63.9676 4.65674H66.3364V5.33384L66.2309 5.4932M66.2309 5.4932C65.2634 6.23057 64.5529 7.25399 64.2002 8.41811ZM64.2002 8.41811L61.8549 11.7942Z" stroke="#7A809A" stroke-width="1.28024" stroke-miterlimit="2.613"/>
<path fill-rule="evenodd" clip-rule="evenodd" d="M61.8549 11.7942L64.0617 11.7935L64.1747 11.608C64.4705 12.7181 65.1691 13.8571 66.3344 14.7016L66.3371 15.2759H64.061V13.767H60.5L59.4572 15.2557H56.6096L56.935 14.7373V6.7842H54.8526V4.65674H61.7184V6.7842H59.4229V11.1971L63.9676 4.65674H66.3364V5.33384L66.2309 5.4932C65.2634 6.23057 64.5529 7.25399 64.2002 8.41811L61.8549 11.7942Z" fill="#9096B3"/>
<path d="M69.6399 4.60553C66.6249 4.60553 64.2298 7.04498 64.2298 10.06C64.2458 11.4974 64.8281 12.8706 65.8503 13.8814C66.8725 14.8921 68.2521 15.459 69.6896 15.4589C71.1272 15.4588 72.5067 14.8918 73.5287 13.8809C74.5508 12.87 75.1329 11.4968 75.1488 10.0593C75.1488 9.90669 75.1428 9.73254 75.1307 9.58327H69.4287V8.66276L67.144 10.5421L69.4287 12.4214V11.4828L72.6132 11.4868C72.0733 12.5539 70.9672 13.3332 69.6896 13.3332C68.8212 13.3329 67.9885 12.9878 67.3743 12.3738C66.7602 11.7598 66.4149 10.9271 66.4144 10.0586C66.4144 8.25058 67.8318 6.82174 69.6399 6.82174V7.93657L72.5433 5.60874L69.6399 3.54785V4.60418" stroke="#7A809A" stroke-width="1.28024" stroke-miterlimit="2.613"/>
<path fill-rule="evenodd" clip-rule="evenodd" d="M69.4287 8.66288V9.58339H75.1307C75.1428 9.73266 75.1488 9.90681 75.1488 10.0594C75.1329 11.4969 74.5508 12.8701 73.5287 13.881C72.5067 14.8919 71.1272 15.4589 69.6896 15.459C68.2521 15.4591 66.8725 14.8923 65.8503 13.8815C64.8281 12.8707 64.2458 11.4976 64.2298 10.0601C64.2298 7.0451 66.6249 4.60565 69.6399 4.60565V3.54932L72.5433 5.6102L69.6399 7.93804V6.8232C67.8318 6.8232 66.4144 8.25205 66.4144 10.0601C66.4149 10.9285 66.7602 11.7612 67.3743 12.3752C67.9885 12.9892 68.8212 13.3343 69.6896 13.3347C70.9672 13.3347 72.0733 12.5554 72.6132 11.4883L69.4287 11.4836V12.4222L67.144 10.5429L69.4287 8.66288Z" fill="#9096B3"/>
</g>
<defs>
<clipPath id="clip0_174_17489">
<rect width="129.6" height="58.3718" fill="white"/>
</clipPath>
</defs>
</svg>
