<svg width="209" height="56" viewBox="0 0 209 56" fill="none" xmlns="http://www.w3.org/2000/svg">
<g clip-path="url(#clip0_162_17417)">
<path d="M161.321 52.3119V20.0947C161.395 19.1037 161.264 18.1081 160.938 17.1697C160.612 16.2313 160.097 15.3701 159.425 14.6395C158.675 13.9382 157.793 13.3949 156.83 13.042C155.867 12.689 154.843 12.5336 153.819 12.5848C153.628 12.5744 153.436 12.5744 153.245 12.5848V44.8226C153.173 45.8119 153.304 46.8055 153.63 47.7421C153.956 48.6786 154.47 49.5381 155.141 50.2675C155.889 50.9653 156.768 51.5065 157.727 51.8593C158.686 52.2121 159.706 52.3695 160.727 52.3221C160.925 52.3322 161.123 52.3322 161.321 52.3221V52.3119ZM162.049 4.76683C162.045 3.82087 161.761 2.8973 161.234 2.11273C160.707 1.32816 159.959 0.717746 159.086 0.358549C158.213 -0.000647273 157.254 -0.0925268 156.328 0.0945091C155.403 0.281545 154.554 0.739112 153.888 1.40945C153.222 2.07979 152.77 2.93285 152.587 3.86094C152.404 4.78904 152.5 5.75056 152.862 6.62415C153.224 7.49773 153.836 8.2442 154.621 8.76934C155.406 9.29449 156.329 9.57475 157.273 9.57476C157.902 9.57613 158.525 9.45255 159.107 9.21116C159.688 8.96977 160.216 8.61535 160.66 8.16835C161.104 7.72135 161.456 7.19062 161.694 6.6068C161.932 6.02298 162.053 5.39763 162.049 4.76683ZM137.851 36.6964V44.8226C137.778 45.8119 137.909 46.8055 138.236 47.7421C138.562 48.6786 139.076 49.5381 139.747 50.2675C140.498 50.9637 141.379 51.5038 142.339 51.8565C143.3 52.2092 144.321 52.3674 145.343 52.3221C145.541 52.3324 145.739 52.3324 145.937 52.3221V35.0013C145.937 27.5531 143.887 22.5397 140.3 18.6358C136.713 14.732 131.076 12.3177 124.599 12.3177C112.3 12.3177 103.711 21.3788 103.711 33.1726C103.711 44.761 111.623 52.4968 121.893 52.4968C129.815 52.4968 134.561 47.7813 134.561 42.2234C134.531 39.939 133.817 37.7162 132.511 35.8437C131.373 41.792 128.083 45.0897 122.805 45.0897C117.158 45.0897 112.187 40.8057 112.187 32.9774C112.187 25.1491 117.168 20.033 124.619 20.033C126.281 19.9889 127.935 20.2799 129.482 20.8887C131.03 21.4976 132.44 22.4119 133.628 23.5773C136.293 26.2279 137.851 30.2858 137.851 36.7067V36.6964ZM200.944 41.6687C200.894 41.6644 200.845 41.6482 200.803 41.6214C200.76 41.5946 200.724 41.558 200.698 41.5146C194.897 33.9534 184.3 20.0022 181.942 16.9613C179.503 13.7663 177.586 12.7184 175.065 12.7184C174.246 12.6933 173.431 12.8403 172.672 13.1499C171.913 13.4595 171.227 13.9249 170.658 14.5162C169.432 16.0201 168.81 17.9291 168.916 19.8687V44.8226C168.84 45.8122 168.969 46.8068 169.295 47.7439C169.622 48.681 170.138 49.5402 170.812 50.2675C171.539 50.9593 172.397 51.4976 173.335 51.8506C174.274 52.2035 175.273 52.3639 176.275 52.3221C176.425 52.3329 176.575 52.3329 176.726 52.3221V23.7006C176.726 23.4951 176.818 23.3821 176.961 23.3821C177.105 23.3821 177.125 23.3821 177.197 23.5465C180.6 27.9846 193.503 44.8945 195.984 48.0793C198.464 51.264 200.319 52.3324 202.83 52.3324C203.651 52.3605 204.468 52.217 205.231 51.911C205.993 51.605 206.683 51.1433 207.258 50.5551C208.48 49.0488 209.101 47.1416 209 45.2027V20.2385C209.071 19.2454 208.938 18.2482 208.61 17.3084C208.282 16.3685 207.766 15.5057 207.094 14.7731C206.365 14.081 205.505 13.5425 204.565 13.1896C203.625 12.8367 202.624 12.6764 201.621 12.7184C201.471 12.7086 201.32 12.7086 201.17 12.7184V41.3605C201.17 41.566 201.077 41.6687 200.944 41.6687ZM73.7732 44.6582C73.4554 44.6582 73.271 44.5555 73.271 44.3398C73.2863 44.2572 73.3189 44.1788 73.3666 44.1098C73.4143 44.0407 73.476 43.9826 73.5477 43.9391C76.028 41.8844 92.4573 28.6421 94.9581 26.5771C99.314 23.0637 100.226 21.348 100.226 18.8516C100.223 18.0982 100.059 17.3543 99.7439 16.6701C99.4292 15.9859 98.9715 15.3775 98.4018 14.8861C97.0899 13.7663 95.1221 13.1602 91.9346 13.1602H63.9955V13.6019C63.9378 15.0418 64.2936 16.468 65.0204 17.7112C66.1581 19.3344 68.2899 20.2693 71.1699 20.2693H89.5363C89.854 20.2693 90.0385 20.372 90.0385 20.5364C90.0385 20.7008 89.9565 20.7727 89.7515 20.9268C87.1483 23.0431 71.9898 35.3095 68.2284 38.3299C63.8623 41.8433 62.9911 43.5898 62.9911 46.076C62.9929 46.8281 63.1568 47.5709 63.4717 48.2536C63.7866 48.9362 64.245 49.5426 64.8154 50.0312C66.1376 51.1613 68.1054 51.7777 71.3031 51.7777H100.564V51.4695C100.625 50.5517 100.493 49.6315 100.177 48.768C99.8608 47.9045 99.3679 47.117 98.7298 46.4561C97.3051 45.1411 95.4603 44.6582 91.9858 44.6582H73.7732Z" fill="#7A809A"/>
<path d="M44.6349 20.8755C44.6349 16.2114 41.058 12.6568 35.9437 13.0678C25.0899 13.8999 23.6447 26.2793 30.7474 27.0703C38.137 27.8922 40.7813 20.0639 40.9247 19.6222C40.9247 20.1564 41.3245 30.9228 30.3682 30.9228C29.2267 30.9354 28.0943 30.7182 27.0381 30.2839C25.982 29.8496 25.0236 29.2072 24.2197 28.3948C23.4159 27.5823 22.7829 26.6163 22.3585 25.5541C21.934 24.4919 21.7266 23.3551 21.7486 22.211C21.7486 16.2217 27.5599 10.2529 35.7694 9.93439C40.361 9.75975 43.3948 10.8487 45.7623 13.2321C50.6102 18.0812 49.1753 27.1731 45.3011 31.6522C39.0902 38.7819 30.3579 40.5901 22.2304 36.9327C14.1028 33.2754 11.1818 22.6939 16.0809 13.8383C17.9257 10.5713 24.5057 3.31836 35.8514 3.31836C50.2002 3.31836 57.5078 13.5301 56.1857 25.5191C55.1608 34.7034 49.616 41.3606 47.0332 44.1755C35.6567 56.5035 18.9916 58.9896 8.49654 52.5585C5.60682 50.8263 3.27752 48.2946 1.78848 45.2676C0.299444 42.2405 -0.28599 38.8469 0.102511 35.4945C0.369341 38.017 1.17926 40.4514 2.47632 42.6295C3.77339 44.8076 5.52669 46.6775 7.61511 48.1101C16.1936 53.9762 30.5526 54.7775 40.9247 43.3433C30.5014 51.1511 18.3152 51.038 10.0032 45.6034C2.36757 40.6209 0.266497 30.666 4.00743 20.8241C2.13184 29.5976 5.10408 37.7341 11.766 41.977C22.0766 48.5827 37.1121 44.7816 46.613 34.1384C49.7923 30.5636 51.5663 25.952 51.6043 21.1632C51.5121 13.715 46.3363 7.03731 35.8514 7.03731C25.1206 7.03731 17.7617 15.3484 17.7617 22.2624C17.7617 29.9366 23.0195 34.313 29.8762 34.313C36.7329 34.313 44.6349 30.0291 44.6349 20.8755Z" fill="#7A809A"/>
</g>
<defs>
<clipPath id="clip0_162_17417">
<rect width="209" height="56" fill="white"/>
</clipPath>
</defs>
</svg>
