<?xml version="1.0" encoding="UTF-8"?>
<svg id="Layer_2" xmlns="http://www.w3.org/2000/svg" version="1.1" viewBox="0 0 703 654">
  <!-- Generator: Adobe Illustrator 29.3.1, SVG Export Plug-In . SVG Version: 2.1.0 Build 151)  -->
  <defs>
    <style>
      .st0 {
        stroke: #d6292c;
        stroke-miterlimit: 10;
      }

      .st0, .st1 {
        fill: #d33c47;
      }
    </style>
  </defs>
  <g>
    <g>
      <path class="st1" d="M179.8,359.2h-11.4l30.4,37.7h-47.6v-70.9l-8.9-10.6v90.3h75l-37.5-46.6h0Z"/>
      <path class="st1" d="M194,312.6h-51.7l8.9,11v-2.2h42.9c7.9,0,14.4,6.5,14.4,14.4s-6.5,14.4-14.4,14.4h-21.4l7.2,8.9h14.2c6.4,0,12.3-2.6,16.5-6.8,4.2-4.2,6.8-10,6.8-16.5,0-12.9-10.4-23.3-23.3-23.3h-.1Z"/>
      <path class="st1" d="M257.5,312.6l-37.5,93.2h75l-37.5-93.2h0ZM257.5,336.4l24.4,60.5h-48.7l24.4-60.5h-.1Z"/>
      <path class="st1" d="M353.3,359.2l-18.8-46.6-37.5,93.2h37.5l3.6-8.9h-27.9l24.4-60.5,14,34.7,4.8,11.9,4.8-11.9-4.8-11.9h-.1Z"/>
      <path class="st1" d="M372,312.6l-18.8,46.6-4.8,11.9,4.8,11.9,4.8-11.9,14-34.7,24.4,60.5h-27.9l3.6,8.9h37.5l-37.5-93.2h-.1Z"/>
      <path class="st1" d="M449.1,312.6l-37.5,93.2h75l-37.5-93.2h0ZM449.1,336.4l24.4,60.5h-48.7l24.4-60.5h0Z"/>
    </g>
    <line class="st0" x1="13.5" y1="520.5" x2="686.5" y2="520.5"/>
    <path class="st1" d="M144.1,465.9h0c3.1,0,5.5,2.5,5.5,5.5v22.5h-11.1v-22.5c0-3.1,2.5-5.5,5.5-5.5h.1Z"/>
    <path class="st1" d="M169,441.8h0c3.1,0,5.5,2.5,5.5,5.5v18.6h-11.1v-18.6c0-3.1,2.5-5.5,5.5-5.5h.1Z"/>
    <rect class="st1" x="42.1" y="489.5" width="68.3" height="31"/>
    <rect class="st1" x="110.4" y="493.5" width="46.1" height="27.1"/>
    <rect class="st1" x="156.5" y="465.9" width="41.5" height="54.6"/>
    <rect class="st1" x="198" y="471.9" width="14.7" height="48.6"/>
    <rect class="st1" x="212.6" y="482.5" width="10.6" height="38"/>
    <rect class="st1" x="223.2" y="465.9" width="20.4" height="54.6"/>
    <rect class="st1" x="250.8" y="472.7" width="20.4" height="47.8"/>
    <rect class="st1" x="271.2" y="472.7" width="33.8" height="47.8"/>
    <rect class="st1" x="305" y="491.3" width="18.9" height="29.2"/>
    <rect class="st1" x="323.9" y="469.6" width="37.2" height="50.9"/>
    <rect class="st1" x="361.1" y="499.8" width="30.2" height="20.8"/>
    <rect class="st1" x="391.2" y="504.3" width="16.2" height="16.2"/>
    <rect class="st1" x="407.5" y="498.8" width="16.2" height="21.8"/>
    <rect class="st1" x="423.7" y="504.3" width="16.2" height="16.2"/>
    <rect class="st1" x="439.9" y="498.8" width="27.5" height="21.8"/>
    <rect class="st1" x="467.4" y="502" width="56.9" height="18.5"/>
    <rect class="st1" x="447" y="477" width="18.2" height="21.8"/>
    <rect class="st1" x="403.6" y="492.2" width="3.8" height="12.2"/>
    <rect class="st1" x="410.2" y="486.6" width="3.8" height="12.2"/>
    <rect class="st1" x="274.5" y="479.2" width="25.7" height="36.3"/>
    <rect class="st1" x="329.6" y="479.2" width="25.7" height="36.3"/>
    <rect class="st1" x="223.2" y="458.5" width="20.4" height="4.7"/>
    <rect class="st1" x="59.4" y="471.9" width="31.3" height="17.6"/>
    <path class="st1" d="M79.2,445.1h2.9c4.8,0,8.7,3.9,8.7,8.7v18.2h-11.5v-26.9h0Z"/>
    <path class="st1" d="M90.7,445.1h2.9c4.8,0,8.7,3.9,8.7,8.7v35.8h-11.5v-44.4h0Z"/>
    <path class="st1" d="M102.2,445.1h0c4.5,0,8.2,3.7,8.2,8.2v36.2h-8.2v-44.4h0Z"/>
    <path class="st1" d="M524.4,520.5h46.3v-217h0c-25.6,0-46.3,172.9-46.3,198.5v18.5Z"/>
    <path class="st1" d="M637.5,520.5h-46.3v-217h0c25.6,0,46.3,172.9,46.3,198.5v18.5Z"/>
    <rect class="st1" x="562.9" y="394.4" width="36.7" height="7.5"/>
    <rect class="st1" x="565.1" y="424.5" width="36.7" height="7.5"/>
    <rect class="st1" x="565.1" y="457.1" width="36.7" height="7.5"/>
    <rect class="st1" x="243.6" y="480.9" width="20.4" height="39.7"/>
  </g>
  <circle class="st1" cx="495.9" cy="135.9" r="49.1"/>
</svg>